NotoSansThaiUI-SemiBold.ufo
<glyph name="hyphen" format="2">
  <advance width="322"/>
  <unicode hex="002D"/>
  <outline>
    <contour>
      <point x="30" y="207" type="line"/>
      <point x="292" y="207" type="line"/>
      <point x="292" y="329" type="line"/>
      <point x="30" y="329" type="line"/>
    </contour>
  </outline>
</glyph>
<glyph name="uni02BC" format="2">
  <advance width="217"/>
  <unicode hex="02BC"/>
  <outline>
    <contour>
      <point x="202" y="714" type="line"/>
      <point x="60" y="714" type="line"/>
      <point x="51" y="645"/>
      <point x="32" y="548"/>
      <point x="14" y="469" type="curve"/>
      <point x="128" y="469" type="line"/>
      <point x="159" y="542"/>
      <point x="192" y="632"/>
      <point x="209" y="703" type="curve"/>
    </contour>
  </outline>
</glyph>
<glyph name="tildecomb" format="2">
  <unicode hex="0303"/>
  <anchor x="-79" y="511" name="_top"/>
  <outline>
    <contour>
      <point x="-120" y="757" type="curve"/>
      <point x="-197" y="757" type="line"/>
      <point x="-204" y="722"/>
      <point x="-221" y="705"/>
      <point x="-236" y="705" type="curve" smooth="yes"/>
      <point x="-282" y="705"/>
      <point x="-335" y="756"/>
      <point x="-384" y="756" type="curve" smooth="yes"/>
      <point x="-450" y="756"/>
      <point x="-496" y="709"/>
      <point x="-504" y="605" type="curve"/>
      <point x="-428" y="605" type="line"/>
      <point x="-421" y="640"/>
      <point x="-404" y="657"/>
      <point x="-389" y="657" type="curve"/>
      <point x="-344" y="657"/>
      <point x="-292" y="606"/>
      <point x="-239" y="606" type="curve" smooth="yes"/>
      <point x="-177" y="606"/>
      <point x="-128" y="654"/>
    </contour>
  </outline>
</glyph>
<glyph name="macronbelowcomb" format="2">
  <unicode hex="0331"/>
  <anchor x="-32" y="0" name="_bottom"/>
  <outline>
    <contour>
      <point x="-120" y="-76" type="line"/>
      <point x="-442" y="-76" type="line" smooth="yes"/>
      <point x="-442" y="-179" type="line"/>
      <point x="-120" y="-179" type="line"/>
    </contour>
  </outline>
</glyph>
<glyph name="koKai-thai" format="2">
  <advance width="624"/>
  <unicode hex="0E01"/>
  <note>
uni0E01
</note>
  <anchor x="555" y="0" name="bottom"/>
  <anchor x="538" y="506" name="top"/>
  <outline>
    <contour>
      <point x="65" y="0" type="line"/>
      <point x="215" y="0" type="line"/>
      <point x="215" y="165" type="line" smooth="yes"/>
      <point x="215" y="215"/>
      <point x="239" y="246"/>
      <point x="287" y="249" type="curve"/>
      <point x="298" y="313" type="line"/>
      <point x="209" y="350" type="line"/>
      <point x="211" y="383"/>
      <point x="241" y="410"/>
      <point x="303" y="410" type="curve" smooth="yes"/>
      <point x="367" y="410"/>
      <point x="404" y="379"/>
      <point x="404" y="319" type="curve" smooth="yes"/>
      <point x="404" y="0" type="line"/>
      <point x="554" y="0" type="line"/>
      <point x="554" y="328" type="line" smooth="yes"/>
      <point x="554" y="462"/>
      <point x="458" y="530"/>
      <point x="307" y="530" type="curve" smooth="yes"/>
      <point x="144" y="530"/>
      <point x="55" y="452"/>
      <point x="55" y="357" type="curve" smooth="yes"/>
      <point x="55" y="333" type="line"/>
      <point x="162" y="297" type="line"/>
      <point x="161" y="293" type="line"/>
      <point x="99" y="275"/>
      <point x="65" y="234"/>
      <point x="65" y="154" type="curve" smooth="yes"/>
    </contour>
  </outline>
</glyph>
<glyph name="khoKhai-thai" format="2">
  <advance width="592"/>
  <unicode hex="0E02"/>
  <note>
uni0E02
</note>
  <anchor x="502" y="0" name="bottom"/>
  <anchor x="522" y="506" name="top"/>
  <outline>
    <contour>
      <point x="295" y="-13" type="curve" smooth="yes"/>
      <point x="443" y="-13"/>
      <point x="522" y="52"/>
      <point x="522" y="181" type="curve" smooth="yes"/>
      <point x="522" y="517" type="line"/>
      <point x="373" y="517" type="line"/>
      <point x="373" y="185" type="line" smooth="yes"/>
      <point x="373" y="133"/>
      <point x="348" y="104"/>
      <point x="296" y="104" type="curve" smooth="yes"/>
      <point x="247" y="104"/>
      <point x="218" y="130"/>
      <point x="218" y="187" type="curve" smooth="yes"/>
      <point x="218" y="223" type="line" smooth="yes"/>
      <point x="218" y="270"/>
      <point x="234" y="288"/>
      <point x="252" y="317" type="curve" smooth="yes"/>
      <point x="271" y="348"/>
      <point x="284" y="376"/>
      <point x="284" y="413" type="curve" smooth="yes"/>
      <point x="284" y="482"/>
      <point x="251" y="525"/>
      <point x="163" y="525" type="curve" smooth="yes"/>
      <point x="130" y="525"/>
      <point x="82" y="519"/>
      <point x="45" y="500" type="curve"/>
      <point x="69" y="407" type="line"/>
      <point x="86" y="414"/>
      <point x="100" y="418"/>
      <point x="113" y="418" type="curve" smooth="yes"/>
      <point x="131" y="418"/>
      <point x="144" y="409"/>
      <point x="144" y="388" type="curve" smooth="yes"/>
      <point x="144" y="364"/>
      <point x="128" y="344"/>
      <point x="107" y="316" type="curve" smooth="yes"/>
      <point x="86" y="288"/>
      <point x="69" y="258"/>
      <point x="69" y="209" type="curve" smooth="yes"/>
      <point x="69" y="174" type="line" smooth="yes"/>
      <point x="69" y="52"/>
      <point x="146" y="-13"/>
    </contour>
  </outline>
</glyph>
<glyph name="khoKhuat-thai" format="2">
  <advance width="601"/>
  <unicode hex="0E03"/>
  <anchor x="505" y="0" name="bottom"/>
  <anchor x="531" y="506" name="top"/>
  <outline>
    <contour>
      <point x="301" y="-13" type="curve" smooth="yes"/>
      <point x="451" y="-13"/>
      <point x="531" y="52"/>
      <point x="531" y="181" type="curve" smooth="yes"/>
      <point x="531" y="517" type="line"/>
      <point x="382" y="517" type="line"/>
      <point x="382" y="185" type="line" smooth="yes"/>
      <point x="382" y="134"/>
      <point x="357" y="104"/>
      <point x="301" y="104" type="curve" smooth="yes"/>
      <point x="250" y="104"/>
      <point x="220" y="131"/>
      <point x="220" y="189" type="curve" smooth="yes"/>
      <point x="220" y="221" type="line" smooth="yes"/>
      <point x="220" y="278"/>
      <point x="241" y="295"/>
      <point x="267" y="330" type="curve" smooth="yes"/>
      <point x="296" y="369"/>
      <point x="307" y="390"/>
      <point x="307" y="451" type="curve" smooth="yes"/>
      <point x="307" y="517" type="line"/>
      <point x="228" y="517" type="line"/>
      <point x="211" y="481" type="line"/>
      <point x="199" y="472"/>
      <point x="185" y="469"/>
      <point x="175" y="469" type="curve" smooth="yes"/>
      <point x="154" y="469"/>
      <point x="146" y="482"/>
      <point x="146" y="517" type="curve"/>
      <point x="39" y="517" type="line"/>
      <point x="39" y="481" type="line" smooth="yes"/>
      <point x="39" y="418"/>
      <point x="73" y="382"/>
      <point x="123" y="382" type="curve" smooth="yes"/>
      <point x="139" y="382"/>
      <point x="153" y="386"/>
      <point x="166" y="392" type="curve"/>
      <point x="169" y="391" type="line"/>
      <point x="167" y="374"/>
      <point x="148" y="356"/>
      <point x="135" y="343" type="curve" smooth="yes"/>
      <point x="92" y="300"/>
      <point x="70" y="261"/>
      <point x="70" y="205" type="curve" smooth="yes"/>
      <point x="70" y="177" type="line" smooth="yes"/>
      <point x="70" y="57"/>
      <point x="144" y="-13"/>
    </contour>
  </outline>
</glyph>
<glyph name="khoKhwai-thai" format="2">
  <advance width="646"/>
  <unicode hex="0E04"/>
  <note>
uni0E04
</note>
  <anchor x="576" y="1" name="bottom"/>
  <anchor x="560" y="506" name="top"/>
  <outline>
    <contour>
      <point x="70" y="0" type="line"/>
      <point x="218" y="0" type="line"/>
      <point x="218" y="59" type="line" smooth="yes"/>
      <point x="218" y="122"/>
      <point x="239" y="175"/>
      <point x="339" y="175" type="curve" smooth="yes"/>
      <point x="362" y="175" type="line"/>
      <point x="362" y="286" type="line"/>
      <point x="339" y="286" type="line" smooth="yes"/>
      <point x="277" y="286"/>
      <point x="246" y="275"/>
      <point x="221" y="226" type="curve"/>
      <point x="218" y="227" type="line"/>
      <point x="218" y="305" type="line" smooth="yes"/>
      <point x="218" y="370"/>
      <point x="249" y="410"/>
      <point x="322" y="410" type="curve" smooth="yes"/>
      <point x="396" y="410"/>
      <point x="427" y="370"/>
      <point x="427" y="305" type="curve" smooth="yes"/>
      <point x="427" y="0" type="line"/>
      <point x="576" y="0" type="line"/>
      <point x="576" y="303" type="line" smooth="yes"/>
      <point x="576" y="450"/>
      <point x="501" y="530"/>
      <point x="324" y="530" type="curve" smooth="yes"/>
      <point x="148" y="530"/>
      <point x="70" y="450"/>
      <point x="70" y="303" type="curve" smooth="yes"/>
    </contour>
  </outline>
</glyph>
<glyph name="khoKhon-thai" format="2">
  <advance width="658"/>
  <unicode hex="0E05"/>
  <anchor x="587" y="1" name="bottom"/>
  <anchor x="571" y="506" name="top"/>
  <outline>
    <contour>
      <point x="70" y="0" type="line"/>
      <point x="218" y="0" type="line"/>
      <point x="218" y="59" type="line" smooth="yes"/>
      <point x="218" y="122"/>
      <point x="239" y="175"/>
      <point x="346" y="175" type="curve" smooth="yes"/>
      <point x="370" y="175" type="line"/>
      <point x="370" y="286" type="line"/>
      <point x="346" y="286" type="line" smooth="yes"/>
      <point x="277" y="286"/>
      <point x="246" y="275"/>
      <point x="220" y="226" type="curve"/>
      <point x="217" y="227" type="line"/>
      <point x="217" y="358" type="line" smooth="yes"/>
      <point x="217" y="396"/>
      <point x="234" y="409"/>
      <point x="257" y="409" type="curve" smooth="yes"/>
      <point x="282" y="409"/>
      <point x="296" y="395"/>
      <point x="299" y="363" type="curve"/>
      <point x="357" y="363" type="line"/>
      <point x="359" y="395"/>
      <point x="374" y="409"/>
      <point x="399" y="409" type="curve" smooth="yes"/>
      <point x="422" y="409"/>
      <point x="439" y="396"/>
      <point x="439" y="358" type="curve" smooth="yes"/>
      <point x="439" y="0" type="line"/>
      <point x="588" y="0" type="line"/>
      <point x="588" y="398" type="line" smooth="yes"/>
      <point x="588" y="487"/>
      <point x="532" y="530"/>
      <point x="445" y="530" type="curve" smooth="yes"/>
      <point x="388" y="530"/>
      <point x="345" y="510"/>
      <point x="331" y="469" type="curve"/>
      <point x="326" y="469" type="line"/>
      <point x="313" y="510"/>
      <point x="270" y="530"/>
      <point x="213" y="530" type="curve" smooth="yes"/>
      <point x="126" y="530"/>
      <point x="70" y="487"/>
      <point x="70" y="398" type="curve" smooth="yes"/>
    </contour>
  </outline>
</glyph>
<glyph name="khoRakhang-thai" format="2">
  <advance width="639"/>
  <unicode hex="0E06"/>
  <anchor x="555" y="0" name="bottom"/>
  <anchor x="569" y="506" name="top"/>
  <outline>
    <contour>
      <point x="388" y="-10" type="curve" smooth="yes"/>
      <point x="506" y="-10"/>
      <point x="569" y="60"/>
      <point x="569" y="183" type="curve" smooth="yes"/>
      <point x="569" y="517" type="line"/>
      <point x="419" y="517" type="line"/>
      <point x="419" y="218" type="line" smooth="yes"/>
      <point x="419" y="146"/>
      <point x="388" y="121"/>
      <point x="333" y="121" type="curve" smooth="yes"/>
      <point x="265" y="121"/>
      <point x="224" y="160"/>
      <point x="224" y="220" type="curve" smooth="yes"/>
      <point x="224" y="227" type="line" smooth="yes"/>
      <point x="224" y="275"/>
      <point x="245" y="291"/>
      <point x="274" y="330" type="curve" smooth="yes"/>
      <point x="307" y="374"/>
      <point x="316" y="398"/>
      <point x="316" y="451" type="curve" smooth="yes"/>
      <point x="316" y="517" type="line"/>
      <point x="232" y="517" type="line"/>
      <point x="216" y="481" type="line"/>
      <point x="204" y="472"/>
      <point x="190" y="469"/>
      <point x="179" y="469" type="curve" smooth="yes"/>
      <point x="159" y="469"/>
      <point x="150" y="482"/>
      <point x="150" y="517" type="curve"/>
      <point x="43" y="517" type="line"/>
      <point x="43" y="481" type="line" smooth="yes"/>
      <point x="43" y="418"/>
      <point x="77" y="382"/>
      <point x="127" y="382" type="curve" smooth="yes"/>
      <point x="143" y="382"/>
      <point x="157" y="386"/>
      <point x="170" y="392" type="curve"/>
      <point x="173" y="391" type="line"/>
      <point x="171" y="376"/>
      <point x="156" y="361"/>
      <point x="137" y="343" type="curve" smooth="yes"/>
      <point x="92" y="301"/>
      <point x="74" y="258"/>
      <point x="74" y="197" type="curve" smooth="yes"/>
      <point x="74" y="0" type="line"/>
      <point x="185" y="0" type="line"/>
      <point x="201" y="81" type="line"/>
      <point x="210" y="81" type="line"/>
      <point x="233" y="29"/>
      <point x="295" y="-10"/>
    </contour>
  </outline>
</glyph>
<glyph name="ngoNgu-thai" format="2">
  <advance width="571"/>
  <unicode hex="0E07"/>
  <note>
uni0E07
</note>
  <anchor x="434" y="0" name="bottom"/>
  <anchor x="478" y="506" name="top"/>
  <outline>
    <contour>
      <point x="164" y="0" type="line"/>
      <point x="242" y="0" type="line" smooth="yes"/>
      <point x="347" y="0"/>
      <point x="402" y="23"/>
      <point x="442" y="59" type="curve" smooth="yes"/>
      <point x="490" y="103"/>
      <point x="529" y="181"/>
      <point x="529" y="283" type="curve" smooth="yes"/>
      <point x="529" y="364"/>
      <point x="505" y="429"/>
      <point x="459" y="472" type="curve" smooth="yes"/>
      <point x="422" y="507"/>
      <point x="371" y="525"/>
      <point x="300" y="525" type="curve" smooth="yes"/>
      <point x="282" y="525"/>
      <point x="253" y="524"/>
      <point x="223" y="515" type="curve"/>
      <point x="251" y="401" type="line"/>
      <point x="259" y="404"/>
      <point x="269" y="405"/>
      <point x="281" y="405" type="curve" smooth="yes"/>
      <point x="341" y="405"/>
      <point x="377" y="360"/>
      <point x="377" y="280" type="curve" smooth="yes"/>
      <point x="377" y="233"/>
      <point x="364" y="184"/>
      <point x="337" y="150" type="curve" smooth="yes"/>
      <point x="323" y="132"/>
      <point x="304" y="121"/>
      <point x="283" y="121" type="curve" smooth="yes"/>
      <point x="277" y="121" type="line"/>
      <point x="156" y="517" type="line"/>
      <point x="5" y="517" type="line"/>
    </contour>
  </outline>
</glyph>
<glyph name="choChan-thai" format="2">
  <advance width="559"/>
  <unicode hex="0E08"/>
  <anchor x="456" y="0" name="bottom"/>
  <anchor x="486" y="506" name="top"/>
  <outline>
    <contour>
      <point x="115" y="0" type="line"/>
      <point x="242" y="0" type="line" smooth="yes"/>
      <point x="439" y="0"/>
      <point x="513" y="93"/>
      <point x="513" y="263" type="curve" smooth="yes"/>
      <point x="513" y="443"/>
      <point x="430" y="530"/>
      <point x="237" y="530" type="curve" smooth="yes"/>
      <point x="150" y="530"/>
      <point x="83" y="510"/>
      <point x="39" y="489" type="curve"/>
      <point x="39" y="365" type="line"/>
      <point x="83" y="390"/>
      <point x="139" y="411"/>
      <point x="208" y="411" type="curve" smooth="yes"/>
      <point x="308" y="411"/>
      <point x="361" y="373"/>
      <point x="361" y="259" type="curve" smooth="yes"/>
      <point x="361" y="163"/>
      <point x="323" y="114"/>
      <point x="257" y="114" type="curve" smooth="yes"/>
      <point x="250" y="114" type="line"/>
      <point x="250" y="305" type="line"/>
      <point x="58" y="305" type="line"/>
      <point x="58" y="215" type="line"/>
      <point x="115" y="215" type="line"/>
    </contour>
  </outline>
</glyph>
<glyph name="choChing-thai" format="2">
  <advance width="623"/>
  <unicode hex="0E09"/>
  <anchor x="554" y="0" name="bottom"/>
  <anchor x="544" y="506" name="top"/>
  <outline>
    <contour>
      <point x="247" y="-10" type="curve" smooth="yes"/>
      <point x="335" y="-10"/>
      <point x="390" y="30"/>
      <point x="415" y="77" type="curve"/>
      <point x="423" y="77" type="line"/>
      <point x="439" y="0" type="line"/>
      <point x="553" y="0" type="line"/>
      <point x="553" y="307" type="line" smooth="yes"/>
      <point x="553" y="451"/>
      <point x="480" y="530"/>
      <point x="303" y="530" type="curve" smooth="yes"/>
      <point x="213" y="530"/>
      <point x="132" y="510"/>
      <point x="89" y="489" type="curve"/>
      <point x="89" y="365" type="line"/>
      <point x="136" y="388"/>
      <point x="198" y="411"/>
      <point x="269" y="411" type="curve" smooth="yes"/>
      <point x="352" y="411"/>
      <point x="403" y="384"/>
      <point x="403" y="305" type="curve" smooth="yes"/>
      <point x="403" y="232" type="line" smooth="yes"/>
      <point x="403" y="160"/>
      <point x="363" y="120"/>
      <point x="298" y="120" type="curve" smooth="yes"/>
      <point x="247" y="120"/>
      <point x="219" y="144"/>
      <point x="219" y="202" type="curve" smooth="yes"/>
      <point x="219" y="295" type="line"/>
      <point x="75" y="295" type="line"/>
      <point x="75" y="156" type="line" smooth="yes"/>
      <point x="75" y="39"/>
      <point x="136" y="-10"/>
    </contour>
  </outline>
</glyph>
<glyph name="choChang-thai" format="2">
  <advance width="599"/>
  <unicode hex="0E0A"/>
  <anchor x="506" y="0" name="bottom"/>
  <anchor x="544" y="504" name="top"/>
  <outline>
    <contour>
      <point x="303" y="-13" type="curve" smooth="yes"/>
      <point x="453" y="-13"/>
      <point x="532" y="52"/>
      <point x="532" y="181" type="curve" smooth="yes"/>
      <point x="532" y="271" type="line" smooth="yes"/>
      <point x="532" y="317"/>
      <point x="519" y="353"/>
      <point x="472" y="365" type="curve"/>
      <point x="472" y="369" type="line"/>
      <point x="525" y="387"/>
      <point x="544" y="438"/>
      <point x="544" y="517" type="curve"/>
      <point x="395" y="517" type="line"/>
      <point x="395" y="461"/>
      <point x="387" y="408"/>
      <point x="325" y="408" type="curve" smooth="yes"/>
      <point x="319" y="408" type="line"/>
      <point x="319" y="330" type="line"/>
      <point x="324" y="330" type="line" smooth="yes"/>
      <point x="367" y="330"/>
      <point x="383" y="307"/>
      <point x="383" y="270" type="curve" smooth="yes"/>
      <point x="383" y="185" type="line" smooth="yes"/>
      <point x="383" y="135"/>
      <point x="360" y="104"/>
      <point x="303" y="104" type="curve" smooth="yes"/>
      <point x="250" y="104"/>
      <point x="220" y="131"/>
      <point x="220" y="189" type="curve" smooth="yes"/>
      <point x="220" y="223" type="line" smooth="yes"/>
      <point x="220" y="270"/>
      <point x="234" y="288"/>
      <point x="252" y="317" type="curve" smooth="yes"/>
      <point x="271" y="348"/>
      <point x="284" y="376"/>
      <point x="284" y="413" type="curve" smooth="yes"/>
      <point x="284" y="482"/>
      <point x="251" y="525"/>
      <point x="163" y="525" type="curve" smooth="yes"/>
      <point x="130" y="525"/>
      <point x="82" y="519"/>
      <point x="45" y="500" type="curve"/>
      <point x="69" y="407" type="line"/>
      <point x="86" y="414"/>
      <point x="100" y="418"/>
      <point x="113" y="418" type="curve" smooth="yes"/>
      <point x="131" y="418"/>
      <point x="144" y="409"/>
      <point x="144" y="388" type="curve" smooth="yes"/>
      <point x="144" y="364"/>
      <point x="128" y="344"/>
      <point x="107" y="316" type="curve" smooth="yes"/>
      <point x="86" y="288"/>
      <point x="72" y="257"/>
      <point x="72" y="208" type="curve" smooth="yes"/>
      <point x="72" y="174" type="line" smooth="yes"/>
      <point x="72" y="53"/>
      <point x="151" y="-13"/>
    </contour>
  </outline>
</glyph>
<glyph name="soSo-thai" format="2">
  <advance width="603"/>
  <unicode hex="0E0B"/>
  <note>
uni0E0B
</note>
  <anchor x="511" y="0" name="bottom"/>
  <anchor x="549" y="504" name="top"/>
  <outline>
    <contour>
      <point x="304" y="-13" type="curve" smooth="yes"/>
      <point x="457" y="-13"/>
      <point x="536" y="53"/>
      <point x="536" y="181" type="curve" smooth="yes"/>
      <point x="536" y="268" type="line" smooth="yes"/>
      <point x="536" y="320"/>
      <point x="521" y="353"/>
      <point x="476" y="365" type="curve"/>
      <point x="476" y="369" type="line"/>
      <point x="530" y="388"/>
      <point x="548" y="438"/>
      <point x="548" y="517" type="curve"/>
      <point x="400" y="517" type="line"/>
      <point x="400" y="461"/>
      <point x="393" y="408"/>
      <point x="334" y="408" type="curve" smooth="yes"/>
      <point x="330" y="408" type="line"/>
      <point x="330" y="330" type="line"/>
      <point x="333" y="330" type="line" smooth="yes"/>
      <point x="372" y="330"/>
      <point x="388" y="307"/>
      <point x="388" y="270" type="curve" smooth="yes"/>
      <point x="388" y="185" type="line" smooth="yes"/>
      <point x="388" y="135"/>
      <point x="363" y="104"/>
      <point x="304" y="104" type="curve" smooth="yes"/>
      <point x="252" y="104"/>
      <point x="222" y="130"/>
      <point x="222" y="189" type="curve" smooth="yes"/>
      <point x="222" y="224" type="line" smooth="yes"/>
      <point x="222" y="278"/>
      <point x="242" y="295"/>
      <point x="267" y="330" type="curve" smooth="yes"/>
      <point x="295" y="369"/>
      <point x="302" y="390"/>
      <point x="302" y="451" type="curve" smooth="yes"/>
      <point x="302" y="517" type="line"/>
      <point x="228" y="517" type="line"/>
      <point x="212" y="481" type="line"/>
      <point x="200" y="472"/>
      <point x="186" y="469"/>
      <point x="175" y="469" type="curve" smooth="yes"/>
      <point x="155" y="469"/>
      <point x="146" y="482"/>
      <point x="146" y="517" type="curve"/>
      <point x="39" y="517" type="line"/>
      <point x="39" y="481" type="line" smooth="yes"/>
      <point x="39" y="418"/>
      <point x="73" y="382"/>
      <point x="123" y="382" type="curve" smooth="yes"/>
      <point x="139" y="382"/>
      <point x="153" y="386"/>
      <point x="166" y="392" type="curve"/>
      <point x="169" y="391" type="line"/>
      <point x="167" y="374"/>
      <point x="148" y="356"/>
      <point x="135" y="343" type="curve" smooth="yes"/>
      <point x="92" y="300"/>
      <point x="72" y="261"/>
      <point x="72" y="205" type="curve" smooth="yes"/>
      <point x="72" y="177" type="line" smooth="yes"/>
      <point x="72" y="57"/>
      <point x="149" y="-13"/>
    </contour>
  </outline>
</glyph>
<glyph name="choChoe-thai" format="2">
  <advance width="927"/>
  <unicode hex="0E0C"/>
  <anchor x="836" y="0" name="bottom"/>
  <anchor x="857" y="506" name="top"/>
  <outline>
    <contour>
      <point x="206" y="-10" type="curve" smooth="yes"/>
      <point x="242" y="-10"/>
      <point x="275" y="-2"/>
      <point x="300" y="10" type="curve"/>
      <point x="286" y="98" type="line"/>
      <point x="276" y="94"/>
      <point x="263" y="92"/>
      <point x="251" y="92" type="curve" smooth="yes"/>
      <point x="223" y="92"/>
      <point x="211" y="103"/>
      <point x="211" y="130" type="curve" smooth="yes"/>
      <point x="211" y="184" type="line" smooth="yes"/>
      <point x="211" y="234"/>
      <point x="237" y="250"/>
      <point x="286" y="252" type="curve"/>
      <point x="296" y="315" type="line"/>
      <point x="209" y="353" type="line"/>
      <point x="212" y="392"/>
      <point x="245" y="412"/>
      <point x="300" y="412" type="curve" smooth="yes"/>
      <point x="357" y="412"/>
      <point x="394" y="387"/>
      <point x="394" y="323" type="curve" smooth="yes"/>
      <point x="394" y="0" type="line"/>
      <point x="509" y="0" type="line"/>
      <point x="525" y="81" type="line"/>
      <point x="533" y="81" type="line"/>
      <point x="557" y="29"/>
      <point x="611" y="-10"/>
      <point x="694" y="-10" type="curve" smooth="yes"/>
      <point x="805" y="-10"/>
      <point x="857" y="51"/>
      <point x="857" y="168" type="curve" smooth="yes"/>
      <point x="857" y="517" type="line"/>
      <point x="707" y="517" type="line"/>
      <point x="707" y="202" type="line" smooth="yes"/>
      <point x="707" y="144"/>
      <point x="677" y="121"/>
      <point x="636" y="121" type="curve" smooth="yes"/>
      <point x="581" y="121"/>
      <point x="542" y="168"/>
      <point x="542" y="241" type="curve" smooth="yes"/>
      <point x="542" y="338" type="line" smooth="yes"/>
      <point x="542" y="463"/>
      <point x="450" y="530"/>
      <point x="302" y="530" type="curve" smooth="yes"/>
      <point x="143" y="530"/>
      <point x="55" y="453"/>
      <point x="55" y="357" type="curve" smooth="yes"/>
      <point x="55" y="333" type="line"/>
      <point x="164" y="297" type="line"/>
      <point x="163" y="293" type="line"/>
      <point x="101" y="275"/>
      <point x="65" y="244"/>
      <point x="65" y="172" type="curve" smooth="yes"/>
      <point x="65" y="115" type="line" smooth="yes"/>
      <point x="65" y="32"/>
      <point x="120" y="-10"/>
    </contour>
  </outline>
</glyph>
<glyph name="yoYing-thai" format="2">
  <advance width="937"/>
  <unicode hex="0E0D"/>
  <anchor x="819" y="-162" name="bottom"/>
  <anchor x="858" y="506" name="top"/>
  <outline>
    <contour>
      <point x="597" y="-188" type="curve" smooth="yes"/>
      <point x="768" y="-188"/>
      <point x="858" y="-106"/>
      <point x="858" y="66" type="curve" smooth="yes"/>
      <point x="858" y="517" type="line"/>
      <point x="708" y="517" type="line"/>
      <point x="708" y="257" type="line" smooth="yes"/>
      <point x="708" y="184"/>
      <point x="670" y="136"/>
      <point x="613" y="136" type="curve" smooth="yes"/>
      <point x="572" y="136"/>
      <point x="540" y="160"/>
      <point x="540" y="218" type="curve" smooth="yes"/>
      <point x="540" y="338" type="line" smooth="yes"/>
      <point x="540" y="464"/>
      <point x="448" y="530"/>
      <point x="301" y="530" type="curve" smooth="yes"/>
      <point x="143" y="530"/>
      <point x="55" y="454"/>
      <point x="55" y="357" type="curve" smooth="yes"/>
      <point x="55" y="333" type="line"/>
      <point x="164" y="297" type="line"/>
      <point x="163" y="293" type="line"/>
      <point x="101" y="275"/>
      <point x="65" y="244"/>
      <point x="65" y="172" type="curve" smooth="yes"/>
      <point x="65" y="115" type="line" smooth="yes"/>
      <point x="65" y="32"/>
      <point x="120" y="-10"/>
      <point x="206" y="-10" type="curve" smooth="yes"/>
      <point x="242" y="-10"/>
      <point x="275" y="-2"/>
      <point x="300" y="10" type="curve"/>
      <point x="286" y="98" type="line"/>
      <point x="276" y="94"/>
      <point x="263" y="92"/>
      <point x="251" y="92" type="curve" smooth="yes"/>
      <point x="223" y="92"/>
      <point x="211" y="103"/>
      <point x="211" y="130" type="curve" smooth="yes"/>
      <point x="211" y="184" type="line" smooth="yes"/>
      <point x="211" y="234"/>
      <point x="237" y="250"/>
      <point x="286" y="252" type="curve"/>
      <point x="296" y="315" type="line"/>
      <point x="209" y="353" type="line"/>
      <point x="212" y="392"/>
      <point x="248" y="412"/>
      <point x="299" y="412" type="curve" smooth="yes"/>
      <point x="352" y="412"/>
      <point x="393" y="390"/>
      <point x="393" y="328" type="curve" smooth="yes"/>
      <point x="393" y="171" type="line" smooth="yes"/>
      <point x="393" y="57"/>
      <point x="460" y="8"/>
      <point x="560" y="8" type="curve" smooth="yes"/>
      <point x="635" y="8"/>
      <point x="681" y="37"/>
      <point x="706" y="71" type="curve"/>
      <point x="713" y="71" type="line"/>
      <point x="713" y="43" type="line" smooth="yes"/>
      <point x="713" y="-33"/>
      <point x="662" y="-69"/>
      <point x="576" y="-69" type="curve" smooth="yes"/>
      <point x="516" y="-69"/>
      <point x="458" y="-50"/>
      <point x="424" y="-31" type="curve"/>
      <point x="424" y="-156" type="line"/>
      <point x="475" y="-178"/>
      <point x="537" y="-188"/>
    </contour>
  </outline>
</glyph>
<glyph name="doChada-thai" format="2">
  <advance width="637"/>
  <unicode hex="0E0E"/>
  <anchor x="567" y="-184" name="bottom"/>
  <anchor x="553" y="506" name="top"/>
  <outline>
    <contour>
      <point x="91" y="-202" type="line"/>
      <point x="232" y="-202" type="line"/>
      <point x="232" y="-193" type="line" smooth="yes"/>
      <point x="232" y="-165"/>
      <point x="251" y="-147"/>
      <point x="298" y="-147" type="curve" smooth="yes"/>
      <point x="345" y="-147"/>
      <point x="408" y="-166"/>
      <point x="437" y="-202" type="curve"/>
      <point x="567" y="-202" type="line"/>
      <point x="567" y="328" type="line" smooth="yes"/>
      <point x="567" y="462"/>
      <point x="471" y="530"/>
      <point x="317" y="530" type="curve" smooth="yes"/>
      <point x="152" y="530"/>
      <point x="67" y="452"/>
      <point x="67" y="357" type="curve" smooth="yes"/>
      <point x="67" y="333" type="line"/>
      <point x="176" y="297" type="line"/>
      <point x="175" y="293" type="line"/>
      <point x="120" y="280"/>
      <point x="94" y="246"/>
      <point x="94" y="188" type="curve" smooth="yes"/>
      <point x="94" y="128" type="line" smooth="yes"/>
      <point x="94" y="106"/>
      <point x="84" y="95"/>
      <point x="62" y="95" type="curve" smooth="yes"/>
      <point x="54" y="95"/>
      <point x="45" y="96"/>
      <point x="36" y="99" type="curve"/>
      <point x="22" y="18" type="line"/>
      <point x="46" y="6"/>
      <point x="76" y="-3"/>
      <point x="114" y="-3" type="curve" smooth="yes"/>
      <point x="187" y="-3"/>
      <point x="240" y="28"/>
      <point x="240" y="110" type="curve" smooth="yes"/>
      <point x="240" y="181" type="line" smooth="yes"/>
      <point x="240" y="230"/>
      <point x="259" y="251"/>
      <point x="297" y="252" type="curve"/>
      <point x="308" y="315" type="line"/>
      <point x="221" y="350" type="line"/>
      <point x="223" y="383"/>
      <point x="253" y="410"/>
      <point x="315" y="410" type="curve" smooth="yes"/>
      <point x="380" y="410"/>
      <point x="417" y="379"/>
      <point x="417" y="319" type="curve" smooth="yes"/>
      <point x="417" y="-116" type="line"/>
      <point x="447" y="-107" type="line"/>
      <point x="418" y="-66"/>
      <point x="342" y="-32"/>
      <point x="255" y="-32" type="curve" smooth="yes"/>
      <point x="152" y="-32"/>
      <point x="91" y="-78"/>
      <point x="91" y="-185" type="curve" smooth="yes"/>
    </contour>
  </outline>
</glyph>
<glyph name="toPatak-thai" format="2">
  <advance width="637"/>
  <unicode hex="0E0F"/>
  <anchor x="567" y="-184" name="bottom"/>
  <anchor x="553" y="506" name="top"/>
  <outline>
    <contour>
      <point x="61" y="-202" type="line"/>
      <point x="181" y="-202" type="line"/>
      <point x="181" y="-197" type="line" smooth="yes"/>
      <point x="181" y="-177"/>
      <point x="189" y="-152"/>
      <point x="221" y="-152" type="curve" smooth="yes"/>
      <point x="252" y="-152"/>
      <point x="273" y="-176"/>
      <point x="286" y="-202" type="curve"/>
      <point x="321" y="-202" type="line"/>
      <point x="372" y="-153" type="line"/>
      <point x="441" y="-202" type="line"/>
      <point x="567" y="-202" type="line"/>
      <point x="567" y="328" type="line" smooth="yes"/>
      <point x="567" y="462"/>
      <point x="471" y="530"/>
      <point x="317" y="530" type="curve" smooth="yes"/>
      <point x="152" y="530"/>
      <point x="67" y="452"/>
      <point x="67" y="357" type="curve" smooth="yes"/>
      <point x="67" y="333" type="line"/>
      <point x="176" y="297" type="line"/>
      <point x="175" y="293" type="line"/>
      <point x="120" y="280"/>
      <point x="94" y="246"/>
      <point x="94" y="188" type="curve" smooth="yes"/>
      <point x="94" y="128" type="line" smooth="yes"/>
      <point x="94" y="106"/>
      <point x="84" y="95"/>
      <point x="62" y="95" type="curve" smooth="yes"/>
      <point x="54" y="95"/>
      <point x="45" y="96"/>
      <point x="36" y="99" type="curve"/>
      <point x="22" y="18" type="line"/>
      <point x="46" y="6"/>
      <point x="76" y="-3"/>
      <point x="114" y="-3" type="curve" smooth="yes"/>
      <point x="187" y="-3"/>
      <point x="240" y="28"/>
      <point x="240" y="110" type="curve" smooth="yes"/>
      <point x="240" y="181" type="line" smooth="yes"/>
      <point x="240" y="230"/>
      <point x="259" y="251"/>
      <point x="297" y="252" type="curve"/>
      <point x="308" y="315" type="line"/>
      <point x="221" y="350" type="line"/>
      <point x="223" y="383"/>
      <point x="253" y="410"/>
      <point x="315" y="410" type="curve" smooth="yes"/>
      <point x="380" y="410"/>
      <point x="417" y="379"/>
      <point x="417" y="319" type="curve" smooth="yes"/>
      <point x="417" y="-106" type="line"/>
      <point x="438" y="-101" type="line"/>
      <point x="361" y="-51" type="line"/>
      <point x="304" y="-99" type="line"/>
      <point x="279" y="-59"/>
      <point x="242" y="-38"/>
      <point x="187" y="-38" type="curve" smooth="yes"/>
      <point x="118" y="-38"/>
      <point x="61" y="-77"/>
      <point x="61" y="-167" type="curve" smooth="yes"/>
    </contour>
  </outline>
</glyph>
<glyph name="thoThan-thai" format="2">
  <advance width="572"/>
  <unicode hex="0E10"/>
  <anchor x="510" y="-184" name="bottom"/>
  <anchor x="501" y="506" name="top"/>
  <outline>
    <contour>
      <point x="117" y="0" type="line"/>
      <point x="244" y="0" type="line" smooth="yes"/>
      <point x="438" y="0"/>
      <point x="515" y="94"/>
      <point x="515" y="255" type="curve" smooth="yes"/>
      <point x="515" y="367"/>
      <point x="478" y="428"/>
      <point x="421" y="449" type="curve"/>
      <point x="398" y="510"/>
      <point x="330" y="530"/>
      <point x="241" y="530" type="curve" smooth="yes"/>
      <point x="152" y="530"/>
      <point x="85" y="510"/>
      <point x="41" y="489" type="curve"/>
      <point x="41" y="365" type="line"/>
      <point x="85" y="390"/>
      <point x="140" y="411"/>
      <point x="211" y="411" type="curve" smooth="yes"/>
      <point x="311" y="411"/>
      <point x="363" y="373"/>
      <point x="363" y="259" type="curve" smooth="yes"/>
      <point x="363" y="163"/>
      <point x="325" y="114"/>
      <point x="259" y="114" type="curve" smooth="yes"/>
      <point x="252" y="114" type="line"/>
      <point x="252" y="305" type="line"/>
      <point x="60" y="305" type="line"/>
      <point x="60" y="215" type="line"/>
      <point x="117" y="215" type="line"/>
    </contour>
    <contour>
      <point x="41" y="-202" type="line"/>
      <point x="152" y="-202" type="line"/>
      <point x="152" y="-197" type="line" smooth="yes"/>
      <point x="152" y="-177"/>
      <point x="159" y="-152"/>
      <point x="189" y="-152" type="curve" smooth="yes"/>
      <point x="220" y="-152"/>
      <point x="240" y="-176"/>
      <point x="253" y="-202" type="curve"/>
      <point x="280" y="-202" type="line"/>
      <point x="323" y="-154" type="line"/>
      <point x="381" y="-202" type="line"/>
      <point x="510" y="-202" type="line"/>
      <point x="510" y="-28" type="line"/>
      <point x="386" y="-28" type="line"/>
      <point x="386" y="-110" type="line"/>
      <point x="399" y="-105" type="line"/>
      <point x="322" y="-53" type="line"/>
      <point x="270" y="-104" type="line"/>
      <point x="243" y="-65"/>
      <point x="212" y="-42"/>
      <point x="158" y="-42" type="curve" smooth="yes"/>
      <point x="91" y="-42"/>
      <point x="41" y="-81"/>
      <point x="41" y="-171" type="curve" smooth="yes"/>
    </contour>
    <contour>
      <point x="423" y="409" type="line"/>
      <point x="512" y="435"/>
      <point x="548" y="493"/>
      <point x="548" y="551" type="curve"/>
      <point x="417" y="551" type="line"/>
      <point x="416" y="518"/>
      <point x="388" y="494"/>
      <point x="341" y="478" type="curve"/>
    </contour>
  </outline>
</glyph>
<glyph name="thoNangmontho-thai" format="2">
  <advance width="650"/>
  <unicode hex="0E11"/>
  <anchor x="581" y="0" name="bottom"/>
  <anchor x="559" y="506" name="top"/>
  <outline>
    <contour>
      <point x="84" y="0" type="line"/>
      <point x="234" y="0" type="line"/>
      <point x="234" y="200" type="line" smooth="yes"/>
      <point x="234" y="264"/>
      <point x="246" y="291"/>
      <point x="279" y="332" type="curve" smooth="yes"/>
      <point x="320" y="383"/>
      <point x="348" y="403"/>
      <point x="381" y="403" type="curve" smooth="yes"/>
      <point x="415" y="403"/>
      <point x="430" y="382"/>
      <point x="430" y="338" type="curve" smooth="yes"/>
      <point x="430" y="0" type="line"/>
      <point x="580" y="0" type="line"/>
      <point x="580" y="403" type="line" smooth="yes"/>
      <point x="580" y="480"/>
      <point x="535" y="526"/>
      <point x="449" y="526" type="curve" smooth="yes"/>
      <point x="382" y="526"/>
      <point x="331" y="495"/>
      <point x="298" y="446" type="curve"/>
      <point x="294" y="446" type="line"/>
      <point x="294" y="517" type="line"/>
      <point x="222" y="517" type="line"/>
      <point x="205" y="481" type="line"/>
      <point x="194" y="471"/>
      <point x="182" y="469"/>
      <point x="172" y="469" type="curve" smooth="yes"/>
      <point x="151" y="469"/>
      <point x="143" y="482"/>
      <point x="143" y="517" type="curve"/>
      <point x="39" y="517" type="line"/>
      <point x="39" y="481" type="line" smooth="yes"/>
      <point x="39" y="418"/>
      <point x="73" y="382"/>
      <point x="123" y="382" type="curve" smooth="yes"/>
      <point x="139" y="382"/>
      <point x="153" y="386"/>
      <point x="166" y="392" type="curve"/>
      <point x="169" y="391" type="line"/>
      <point x="167" y="376"/>
      <point x="160" y="369"/>
      <point x="131" y="340" type="curve" smooth="yes"/>
      <point x="86" y="294"/>
      <point x="84" y="255"/>
      <point x="84" y="198" type="curve" smooth="yes"/>
    </contour>
  </outline>
</glyph>
<glyph name="thoPhuthao-thai" format="2">
  <advance width="942"/>
  <unicode hex="0E12"/>
  <anchor x="862" y="0" name="bottom"/>
  <anchor x="883" y="506" name="top"/>
  <outline>
    <contour>
      <point x="274" y="-10" type="curve" smooth="yes"/>
      <point x="306" y="-10"/>
      <point x="330" y="-6"/>
      <point x="352" y="3" type="curve"/>
      <point x="337" y="109" type="line"/>
      <point x="326" y="106"/>
      <point x="314" y="104"/>
      <point x="299" y="104" type="curve" smooth="yes"/>
      <point x="221" y="104"/>
      <point x="202" y="159"/>
      <point x="202" y="267" type="curve" smooth="yes"/>
      <point x="202" y="372"/>
      <point x="220" y="407"/>
      <point x="253" y="407" type="curve" smooth="yes"/>
      <point x="270" y="407"/>
      <point x="285" y="398"/>
      <point x="290" y="363" type="curve"/>
      <point x="348" y="363" type="line"/>
      <point x="352" y="395"/>
      <point x="364" y="407"/>
      <point x="386" y="407" type="curve" smooth="yes"/>
      <point x="407" y="407"/>
      <point x="420" y="397"/>
      <point x="420" y="359" type="curve" smooth="yes"/>
      <point x="420" y="0" type="line"/>
      <point x="535" y="0" type="line"/>
      <point x="551" y="81" type="line"/>
      <point x="559" y="81" type="line"/>
      <point x="583" y="30"/>
      <point x="634" y="-10"/>
      <point x="722" y="-10" type="curve" smooth="yes"/>
      <point x="830" y="-10"/>
      <point x="883" y="51"/>
      <point x="883" y="168" type="curve" smooth="yes"/>
      <point x="883" y="517" type="line"/>
      <point x="733" y="517" type="line"/>
      <point x="733" y="202" type="line" smooth="yes"/>
      <point x="733" y="144"/>
      <point x="703" y="121"/>
      <point x="662" y="121" type="curve" smooth="yes"/>
      <point x="606" y="121"/>
      <point x="568" y="168"/>
      <point x="568" y="241" type="curve" smooth="yes"/>
      <point x="568" y="389" type="line" smooth="yes"/>
      <point x="568" y="478"/>
      <point x="521" y="526"/>
      <point x="436" y="526" type="curve" smooth="yes"/>
      <point x="390" y="526"/>
      <point x="343" y="513"/>
      <point x="324" y="465" type="curve"/>
      <point x="320" y="465" type="line"/>
      <point x="299" y="512"/>
      <point x="264" y="526"/>
      <point x="218" y="526" type="curve" smooth="yes"/>
      <point x="110" y="526"/>
      <point x="52" y="449"/>
      <point x="52" y="265" type="curve" smooth="yes"/>
      <point x="52" y="97"/>
      <point x="101" y="-10"/>
    </contour>
  </outline>
</glyph>
<glyph name="noNen-thai" format="2">
  <advance width="937"/>
  <unicode hex="0E13"/>
  <anchor x="858" y="0" name="bottom"/>
  <anchor x="858" y="506" name="top"/>
  <outline>
    <contour>
      <point x="206" y="-10" type="curve" smooth="yes"/>
      <point x="242" y="-10"/>
      <point x="275" y="-2"/>
      <point x="300" y="10" type="curve"/>
      <point x="286" y="98" type="line"/>
      <point x="276" y="94"/>
      <point x="263" y="92"/>
      <point x="251" y="92" type="curve" smooth="yes"/>
      <point x="223" y="92"/>
      <point x="211" y="103"/>
      <point x="211" y="130" type="curve" smooth="yes"/>
      <point x="211" y="184" type="line" smooth="yes"/>
      <point x="211" y="234"/>
      <point x="237" y="250"/>
      <point x="286" y="252" type="curve"/>
      <point x="296" y="315" type="line"/>
      <point x="209" y="353" type="line"/>
      <point x="212" y="392"/>
      <point x="248" y="412"/>
      <point x="299" y="412" type="curve" smooth="yes"/>
      <point x="352" y="412"/>
      <point x="393" y="390"/>
      <point x="393" y="328" type="curve" smooth="yes"/>
      <point x="393" y="161" type="line" smooth="yes"/>
      <point x="393" y="44"/>
      <point x="448" y="-10"/>
      <point x="558" y="-10" type="curve" smooth="yes"/>
      <point x="638" y="-10"/>
      <point x="693" y="29"/>
      <point x="717" y="81" type="curve"/>
      <point x="725" y="81" type="line"/>
      <point x="742" y="0" type="line"/>
      <point x="858" y="0" type="line"/>
      <point x="858" y="517" type="line"/>
      <point x="708" y="517" type="line"/>
      <point x="708" y="241" type="line" smooth="yes"/>
      <point x="708" y="168"/>
      <point x="670" y="121"/>
      <point x="613" y="121" type="curve" smooth="yes"/>
      <point x="571" y="121"/>
      <point x="540" y="144"/>
      <point x="540" y="202" type="curve" smooth="yes"/>
      <point x="540" y="338" type="line" smooth="yes"/>
      <point x="540" y="464"/>
      <point x="448" y="530"/>
      <point x="301" y="530" type="curve" smooth="yes"/>
      <point x="143" y="530"/>
      <point x="55" y="454"/>
      <point x="55" y="357" type="curve" smooth="yes"/>
      <point x="55" y="333" type="line"/>
      <point x="164" y="297" type="line"/>
      <point x="163" y="293" type="line"/>
      <point x="101" y="275"/>
      <point x="65" y="244"/>
      <point x="65" y="172" type="curve" smooth="yes"/>
      <point x="65" y="115" type="line" smooth="yes"/>
      <point x="65" y="32"/>
      <point x="120" y="-10"/>
    </contour>
  </outline>
</glyph>
<glyph name="doDek-thai" format="2">
  <advance width="634"/>
  <unicode hex="0E14"/>
  <anchor x="564" y="0" name="bottom"/>
  <anchor x="543" y="506" name="top"/>
  <outline>
    <contour>
      <point x="267" y="-10" type="curve" smooth="yes"/>
      <point x="294" y="-10"/>
      <point x="327" y="-7"/>
      <point x="348" y="3" type="curve"/>
      <point x="334" y="115" type="line"/>
      <point x="323" y="112"/>
      <point x="308" y="110"/>
      <point x="294" y="110" type="curve" smooth="yes"/>
      <point x="224" y="110"/>
      <point x="200" y="167"/>
      <point x="200" y="254" type="curve" smooth="yes"/>
      <point x="200" y="377"/>
      <point x="247" y="410"/>
      <point x="317" y="410" type="curve" smooth="yes"/>
      <point x="386" y="410"/>
      <point x="414" y="379"/>
      <point x="414" y="324" type="curve" smooth="yes"/>
      <point x="414" y="0" type="line"/>
      <point x="564" y="0" type="line"/>
      <point x="564" y="336" type="line" smooth="yes"/>
      <point x="564" y="453"/>
      <point x="496" y="530"/>
      <point x="317" y="530" type="curve" smooth="yes"/>
      <point x="159" y="530"/>
      <point x="48" y="472"/>
      <point x="48" y="251" type="curve" smooth="yes"/>
      <point x="48" y="97"/>
      <point x="104" y="-10"/>
    </contour>
  </outline>
</glyph>
<glyph name="toTao-thai" format="2">
  <advance width="654"/>
  <unicode hex="0E15"/>
  <note>
uni0E15
</note>
  <anchor x="585" y="0" name="bottom"/>
  <anchor x="561" y="506" name="top"/>
  <outline>
    <contour>
      <point x="279" y="-10" type="curve" smooth="yes"/>
      <point x="309" y="-10"/>
      <point x="334" y="-6"/>
      <point x="356" y="3" type="curve"/>
      <point x="341" y="109" type="line"/>
      <point x="331" y="106"/>
      <point x="318" y="104"/>
      <point x="302" y="104" type="curve" smooth="yes"/>
      <point x="224" y="104"/>
      <point x="204" y="160"/>
      <point x="204" y="264" type="curve" smooth="yes"/>
      <point x="204" y="368"/>
      <point x="222" y="407"/>
      <point x="256" y="407" type="curve" smooth="yes"/>
      <point x="276" y="407"/>
      <point x="292" y="398"/>
      <point x="297" y="363" type="curve"/>
      <point x="356" y="363" type="line"/>
      <point x="360" y="395"/>
      <point x="372" y="407"/>
      <point x="397" y="407" type="curve" smooth="yes"/>
      <point x="419" y="407"/>
      <point x="434" y="396"/>
      <point x="434" y="359" type="curve" smooth="yes"/>
      <point x="434" y="0" type="line"/>
      <point x="584" y="0" type="line"/>
      <point x="584" y="389" type="line" smooth="yes"/>
      <point x="584" y="478"/>
      <point x="538" y="526"/>
      <point x="446" y="526" type="curve" smooth="yes"/>
      <point x="397" y="526"/>
      <point x="350" y="513"/>
      <point x="331" y="465" type="curve"/>
      <point x="327" y="465" type="line"/>
      <point x="306" y="512"/>
      <point x="270" y="526"/>
      <point x="223" y="526" type="curve" smooth="yes"/>
      <point x="110" y="526"/>
      <point x="52" y="447"/>
      <point x="52" y="265" type="curve" smooth="yes"/>
      <point x="52" y="100"/>
      <point x="101" y="-10"/>
    </contour>
  </outline>
</glyph>
<glyph name="thoThung-thai" format="2">
  <advance width="625"/>
  <unicode hex="0E16"/>
  <anchor x="555" y="0" name="bottom"/>
  <anchor x="539" y="506" name="top"/>
  <outline>
    <contour>
      <point x="206" y="-10" type="curve" smooth="yes"/>
      <point x="242" y="-10"/>
      <point x="275" y="-2"/>
      <point x="300" y="10" type="curve"/>
      <point x="286" y="98" type="line"/>
      <point x="276" y="94"/>
      <point x="263" y="92"/>
      <point x="251" y="92" type="curve" smooth="yes"/>
      <point x="223" y="92"/>
      <point x="211" y="103"/>
      <point x="211" y="130" type="curve" smooth="yes"/>
      <point x="211" y="187" type="line" smooth="yes"/>
      <point x="211" y="236"/>
      <point x="237" y="250"/>
      <point x="286" y="252" type="curve"/>
      <point x="296" y="314" type="line"/>
      <point x="209" y="350" type="line"/>
      <point x="211" y="383"/>
      <point x="241" y="410"/>
      <point x="303" y="410" type="curve" smooth="yes"/>
      <point x="368" y="410"/>
      <point x="405" y="379"/>
      <point x="405" y="319" type="curve" smooth="yes"/>
      <point x="405" y="0" type="line"/>
      <point x="555" y="0" type="line"/>
      <point x="555" y="328" type="line" smooth="yes"/>
      <point x="555" y="462"/>
      <point x="459" y="530"/>
      <point x="307" y="530" type="curve" smooth="yes"/>
      <point x="144" y="530"/>
      <point x="55" y="452"/>
      <point x="55" y="357" type="curve" smooth="yes"/>
      <point x="55" y="333" type="line"/>
      <point x="164" y="297" type="line"/>
      <point x="163" y="293" type="line"/>
      <point x="101" y="275"/>
      <point x="65" y="240"/>
      <point x="65" y="167" type="curve" smooth="yes"/>
      <point x="65" y="115" type="line" smooth="yes"/>
      <point x="65" y="32"/>
      <point x="120" y="-10"/>
    </contour>
  </outline>
</glyph>
<glyph name="thoThahan-thai" format="2">
  <advance width="644"/>
  <unicode hex="0E17"/>
  <anchor x="574" y="0" name="bottom"/>
  <anchor x="551" y="506" name="top"/>
  <outline>
    <contour>
      <point x="77" y="0" type="line"/>
      <point x="227" y="0" type="line"/>
      <point x="227" y="240" type="line" smooth="yes"/>
      <point x="227" y="345"/>
      <point x="266" y="396"/>
      <point x="336" y="396" type="curve" smooth="yes"/>
      <point x="393" y="396"/>
      <point x="424" y="369"/>
      <point x="424" y="299" type="curve" smooth="yes"/>
      <point x="424" y="0" type="line"/>
      <point x="574" y="0" type="line"/>
      <point x="574" y="331" type="line" smooth="yes"/>
      <point x="574" y="462"/>
      <point x="510" y="526"/>
      <point x="383" y="526" type="curve" smooth="yes"/>
      <point x="294" y="526"/>
      <point x="238" y="487"/>
      <point x="215" y="436" type="curve"/>
      <point x="207" y="436" type="line"/>
      <point x="187" y="517" type="line"/>
      <point x="77" y="517" type="line"/>
    </contour>
  </outline>
</glyph>
<glyph name="thoThong-thai" format="2">
  <advance width="559"/>
  <unicode hex="0E18"/>
  <anchor x="464" y="0" name="bottom"/>
  <anchor x="497" y="506" name="top"/>
  <outline>
    <contour>
      <point x="286" y="-13" type="curve" smooth="yes"/>
      <point x="464" y="-13"/>
      <point x="520" y="62"/>
      <point x="520" y="160" type="curve" smooth="yes"/>
      <point x="520" y="264"/>
      <point x="454" y="305"/>
      <point x="341" y="337" type="curve" smooth="yes"/>
      <point x="256" y="361"/>
      <point x="199" y="364"/>
      <point x="199" y="392" type="curve" smooth="yes"/>
      <point x="199" y="414"/>
      <point x="233" y="421"/>
      <point x="277" y="421" type="curve" smooth="yes"/>
      <point x="355" y="421"/>
      <point x="439" y="401"/>
      <point x="478" y="386" type="curve"/>
      <point x="478" y="499" type="line"/>
      <point x="443" y="514"/>
      <point x="376" y="530"/>
      <point x="285" y="530" type="curve" smooth="yes"/>
      <point x="141" y="530"/>
      <point x="49" y="491"/>
      <point x="49" y="384" type="curve" smooth="yes"/>
      <point x="49" y="296"/>
      <point x="112" y="271"/>
      <point x="221" y="245" type="curve" smooth="yes"/>
      <point x="320" y="221"/>
      <point x="377" y="216"/>
      <point x="377" y="157" type="curve" smooth="yes"/>
      <point x="377" y="107"/>
      <point x="334" y="91"/>
      <point x="279" y="91" type="curve" smooth="yes"/>
      <point x="247" y="91"/>
      <point x="215" y="96"/>
      <point x="195" y="102" type="curve"/>
      <point x="195" y="226" type="line"/>
      <point x="67" y="226" type="line"/>
      <point x="67" y="24" type="line"/>
      <point x="126" y="3"/>
      <point x="203" y="-13"/>
    </contour>
  </outline>
</glyph>
<glyph name="noNu-thai" format="2">
  <advance width="646"/>
  <unicode hex="0E19"/>
  <note>
uni0E19
</note>
  <anchor x="567" y="0" name="bottom"/>
  <anchor x="567" y="506" name="top"/>
  <outline>
    <contour>
      <point x="257" y="-10" type="curve" smooth="yes"/>
      <point x="352" y="-10"/>
      <point x="405" y="30"/>
      <point x="428" y="80" type="curve"/>
      <point x="437" y="80" type="line"/>
      <point x="453" y="0" type="line"/>
      <point x="567" y="0" type="line"/>
      <point x="567" y="517" type="line"/>
      <point x="417" y="517" type="line"/>
      <point x="417" y="277" type="line" smooth="yes"/>
      <point x="417" y="168"/>
      <point x="377" y="121"/>
      <point x="306" y="121" type="curve" smooth="yes"/>
      <point x="250" y="121"/>
      <point x="220" y="148"/>
      <point x="220" y="218" type="curve" smooth="yes"/>
      <point x="220" y="517" type="line"/>
      <point x="70" y="517" type="line"/>
      <point x="70" y="190" type="line" smooth="yes"/>
      <point x="70" y="60"/>
      <point x="135" y="-10"/>
    </contour>
  </outline>
</glyph>
<glyph name="poPla-thai" format="2">
  <advance width="635"/>
  <unicode hex="0E1B"/>
  <note>
uni0E1B
</note>
  <anchor x="538" y="0" name="bottom"/>
  <anchor x="368" y="506" name="top"/>
  <outline>
    <contour>
      <point x="317" y="-13" type="curve" smooth="yes"/>
      <point x="490" y="-13"/>
      <point x="564" y="67"/>
      <point x="564" y="214" type="curve" smooth="yes"/>
      <point x="564" y="703" type="line"/>
      <point x="414" y="703" type="line"/>
      <point x="414" y="205" type="line" smooth="yes"/>
      <point x="414" y="141"/>
      <point x="384" y="107"/>
      <point x="317" y="107" type="curve" smooth="yes"/>
      <point x="250" y="107"/>
      <point x="220" y="141"/>
      <point x="220" y="205" type="curve" smooth="yes"/>
      <point x="220" y="517" type="line"/>
      <point x="70" y="517" type="line"/>
      <point x="70" y="214" type="line" smooth="yes"/>
      <point x="70" y="67"/>
      <point x="143" y="-13"/>
    </contour>
  </outline>
</glyph>
<glyph name="phoPhung-thai" format="2">
  <advance width="682"/>
  <unicode hex="0E1C"/>
  <anchor x="603" y="0" name="bottom"/>
  <anchor x="603" y="506" name="top"/>
  <outline>
    <contour>
      <point x="75" y="0" type="line"/>
      <point x="218" y="0" type="line"/>
      <point x="337" y="199" type="line"/>
      <point x="341" y="199" type="line"/>
      <point x="460" y="0" type="line"/>
      <point x="603" y="0" type="line"/>
      <point x="603" y="517" type="line"/>
      <point x="463" y="517" type="line"/>
      <point x="463" y="300" type="line" smooth="yes"/>
      <point x="463" y="270"/>
      <point x="465" y="228"/>
      <point x="472" y="162" type="curve"/>
      <point x="467" y="162" type="line"/>
      <point x="445" y="211"/>
      <point x="431" y="235"/>
      <point x="404" y="280" type="curve" smooth="yes"/>
      <point x="367" y="341" type="line"/>
      <point x="311" y="341" type="line"/>
      <point x="274" y="280" type="line" smooth="yes"/>
      <point x="258" y="253"/>
      <point x="238" y="222"/>
      <point x="211" y="162" type="curve"/>
      <point x="206" y="162" type="line"/>
      <point x="213" y="228"/>
      <point x="215" y="270"/>
      <point x="215" y="300" type="curve" smooth="yes"/>
      <point x="215" y="380" type="line" smooth="yes"/>
      <point x="215" y="402"/>
      <point x="223" y="415"/>
      <point x="249" y="415" type="curve" smooth="yes"/>
      <point x="256" y="415"/>
      <point x="267" y="415"/>
      <point x="278" y="412" type="curve"/>
      <point x="298" y="508" type="line"/>
      <point x="279" y="517"/>
      <point x="249" y="526"/>
      <point x="212" y="526" type="curve" smooth="yes"/>
      <point x="132" y="526"/>
      <point x="75" y="497"/>
      <point x="75" y="398" type="curve" smooth="yes"/>
    </contour>
  </outline>
</glyph>
<glyph name="foFa-thai" format="2">
  <advance width="683"/>
  <unicode hex="0E1D"/>
  <anchor x="603" y="0" name="bottom"/>
  <anchor x="416" y="507" name="top"/>
  <outline>
    <contour>
      <point x="75" y="0" type="line"/>
      <point x="218" y="0" type="line"/>
      <point x="337" y="200" type="line"/>
      <point x="341" y="200" type="line"/>
      <point x="460" y="0" type="line"/>
      <point x="603" y="0" type="line"/>
      <point x="603" y="705" type="line"/>
      <point x="463" y="705" type="line"/>
      <point x="463" y="301" type="line" smooth="yes"/>
      <point x="463" y="271"/>
      <point x="465" y="229"/>
      <point x="472" y="163" type="curve"/>
      <point x="467" y="163" type="line"/>
      <point x="445" y="211"/>
      <point x="431" y="236"/>
      <point x="404" y="281" type="curve" smooth="yes"/>
      <point x="367" y="342" type="line"/>
      <point x="311" y="342" type="line"/>
      <point x="274" y="281" type="line" smooth="yes"/>
      <point x="258" y="254"/>
      <point x="238" y="223"/>
      <point x="211" y="163" type="curve"/>
      <point x="206" y="163" type="line"/>
      <point x="213" y="229"/>
      <point x="215" y="271"/>
      <point x="215" y="301" type="curve" smooth="yes"/>
      <point x="215" y="381" type="line" smooth="yes"/>
      <point x="215" y="404"/>
      <point x="223" y="417"/>
      <point x="249" y="417" type="curve" smooth="yes"/>
      <point x="256" y="417"/>
      <point x="267" y="416"/>
      <point x="278" y="413" type="curve"/>
      <point x="298" y="510" type="line"/>
      <point x="279" y="519"/>
      <point x="249" y="528"/>
      <point x="212" y="528" type="curve" smooth="yes"/>
      <point x="132" y="528"/>
      <point x="75" y="498"/>
      <point x="75" y="400" type="curve" smooth="yes"/>
    </contour>
  </outline>
</glyph>
<glyph name="phoPhan-thai" format="2">
  <advance width="727"/>
  <unicode hex="0E1E"/>
  <note>
uni0E1E
</note>
  <anchor x="602" y="0" name="bottom"/>
  <anchor x="656" y="506" name="top"/>
  <outline>
    <contour>
      <point x="126" y="0" type="line"/>
      <point x="269" y="0" type="line"/>
      <point x="332" y="200" type="line" smooth="yes"/>
      <point x="349" y="255"/>
      <point x="354" y="291"/>
      <point x="362" y="332" type="curve"/>
      <point x="366" y="332" type="line"/>
      <point x="372" y="291"/>
      <point x="377" y="251"/>
      <point x="393" y="200" type="curve" smooth="yes"/>
      <point x="455" y="0" type="line"/>
      <point x="602" y="0" type="line"/>
      <point x="696" y="517" type="line"/>
      <point x="551" y="517" type="line"/>
      <point x="523" y="341" type="line" smooth="yes"/>
      <point x="518" y="312"/>
      <point x="513" y="259"/>
      <point x="507" y="191" type="curve"/>
      <point x="504" y="191" type="line"/>
      <point x="487" y="259"/>
      <point x="473" y="311"/>
      <point x="463" y="344" type="curve" smooth="yes"/>
      <point x="409" y="517" type="line"/>
      <point x="318" y="517" type="line"/>
      <point x="264" y="344" type="line" smooth="yes"/>
      <point x="254" y="311"/>
      <point x="240" y="259"/>
      <point x="223" y="191" type="curve"/>
      <point x="220" y="191" type="line"/>
      <point x="214" y="259"/>
      <point x="208" y="312"/>
      <point x="204" y="341" type="curve" smooth="yes"/>
      <point x="177" y="517" type="line"/>
      <point x="31" y="517" type="line"/>
    </contour>
  </outline>
</glyph>
<glyph name="foFan-thai" format="2">
  <advance width="718"/>
  <unicode hex="0E1F"/>
  <anchor x="600" y="0" name="bottom"/>
  <anchor x="461" y="506" name="top"/>
  <outline>
    <contour>
      <point x="124" y="0" type="line"/>
      <point x="267" y="0" type="line"/>
      <point x="330" y="200" type="line" smooth="yes"/>
      <point x="347" y="255"/>
      <point x="353" y="291"/>
      <point x="360" y="332" type="curve"/>
      <point x="364" y="332" type="line"/>
      <point x="371" y="291"/>
      <point x="375" y="251"/>
      <point x="391" y="200" type="curve" smooth="yes"/>
      <point x="453" y="0" type="line"/>
      <point x="600" y="0" type="line"/>
      <point x="710" y="703" type="line"/>
      <point x="566" y="703" type="line"/>
      <point x="520" y="341" type="line" smooth="yes"/>
      <point x="517" y="312"/>
      <point x="511" y="258"/>
      <point x="505" y="191" type="curve"/>
      <point x="502" y="191" type="line"/>
      <point x="487" y="250"/>
      <point x="474" y="303"/>
      <point x="461" y="344" type="curve" smooth="yes"/>
      <point x="408" y="517" type="line"/>
      <point x="317" y="517" type="line"/>
      <point x="263" y="344" type="line" smooth="yes"/>
      <point x="250" y="303"/>
      <point x="236" y="250"/>
      <point x="222" y="191" type="curve"/>
      <point x="218" y="191" type="line"/>
      <point x="213" y="256"/>
      <point x="205" y="317"/>
      <point x="202" y="341" type="curve" smooth="yes"/>
      <point x="177" y="517" type="line"/>
      <point x="31" y="517" type="line"/>
    </contour>
  </outline>
</glyph>
<glyph name="phoSamphao-thai" format="2">
  <advance width="637"/>
  <unicode hex="0E20"/>
  <anchor x="567" y="0" name="bottom"/>
  <anchor x="551" y="506" name="top"/>
  <outline>
    <contour>
      <point x="114" y="-10" type="curve" smooth="yes"/>
      <point x="187" y="-10"/>
      <point x="240" y="22"/>
      <point x="240" y="104" type="curve" smooth="yes"/>
      <point x="240" y="181" type="line" smooth="yes"/>
      <point x="240" y="230"/>
      <point x="259" y="251"/>
      <point x="297" y="252" type="curve"/>
      <point x="308" y="315" type="line"/>
      <point x="221" y="350" type="line"/>
      <point x="223" y="383"/>
      <point x="253" y="410"/>
      <point x="315" y="410" type="curve" smooth="yes"/>
      <point x="380" y="410"/>
      <point x="417" y="379"/>
      <point x="417" y="319" type="curve" smooth="yes"/>
      <point x="417" y="0" type="line"/>
      <point x="567" y="0" type="line"/>
      <point x="567" y="328" type="line" smooth="yes"/>
      <point x="567" y="462"/>
      <point x="471" y="530"/>
      <point x="317" y="530" type="curve" smooth="yes"/>
      <point x="152" y="530"/>
      <point x="67" y="452"/>
      <point x="67" y="357" type="curve" smooth="yes"/>
      <point x="67" y="333" type="line"/>
      <point x="176" y="297" type="line"/>
      <point x="175" y="293" type="line"/>
      <point x="120" y="280"/>
      <point x="94" y="246"/>
      <point x="94" y="188" type="curve" smooth="yes"/>
      <point x="94" y="121" type="line" smooth="yes"/>
      <point x="94" y="99"/>
      <point x="84" y="89"/>
      <point x="62" y="89" type="curve" smooth="yes"/>
      <point x="54" y="89"/>
      <point x="45" y="90"/>
      <point x="36" y="93" type="curve"/>
      <point x="22" y="11" type="line"/>
      <point x="46" y="-1"/>
      <point x="76" y="-10"/>
    </contour>
  </outline>
</glyph>
<glyph name="moMa-thai" format="2">
  <advance width="646"/>
  <unicode hex="0E21"/>
  <note>
uni0E21
</note>
  <anchor x="560" y="0" name="bottom"/>
  <anchor x="576" y="506" name="top"/>
  <outline>
    <contour>
      <point x="393" y="-10" type="curve" smooth="yes"/>
      <point x="513" y="-10"/>
      <point x="576" y="60"/>
      <point x="576" y="183" type="curve" smooth="yes"/>
      <point x="576" y="517" type="line"/>
      <point x="426" y="517" type="line"/>
      <point x="426" y="218" type="line" smooth="yes"/>
      <point x="426" y="148"/>
      <point x="396" y="121"/>
      <point x="340" y="121" type="curve" smooth="yes"/>
      <point x="269" y="121"/>
      <point x="229" y="168"/>
      <point x="229" y="277" type="curve" smooth="yes"/>
      <point x="229" y="517" type="line"/>
      <point x="79" y="517" type="line"/>
      <point x="79" y="0" type="line"/>
      <point x="193" y="0" type="line"/>
      <point x="209" y="81" type="line"/>
      <point x="217" y="81" type="line"/>
      <point x="241" y="29"/>
      <point x="298" y="-10"/>
    </contour>
  </outline>
</glyph>
<glyph name="yoYak-thai" format="2">
  <advance width="622"/>
  <unicode hex="0E22"/>
  <note>
uni0E22
</note>
  <anchor x="525" y="0" name="bottom"/>
  <anchor x="551" y="506" name="top"/>
  <outline>
    <contour>
      <point x="302" y="-13" type="curve" smooth="yes"/>
      <point x="474" y="-13"/>
      <point x="552" y="48"/>
      <point x="552" y="177" type="curve" smooth="yes"/>
      <point x="552" y="517" type="line"/>
      <point x="402" y="517" type="line"/>
      <point x="402" y="173" type="line" smooth="yes"/>
      <point x="402" y="133"/>
      <point x="379" y="100"/>
      <point x="305" y="100" type="curve" smooth="yes"/>
      <point x="227" y="100"/>
      <point x="207" y="136"/>
      <point x="207" y="168" type="curve" smooth="yes"/>
      <point x="207" y="208"/>
      <point x="236" y="224"/>
      <point x="293" y="224" type="curve" smooth="yes"/>
      <point x="314" y="224" type="line"/>
      <point x="314" y="316" type="line"/>
      <point x="293" y="316" type="line" smooth="yes"/>
      <point x="249" y="316"/>
      <point x="204" y="326"/>
      <point x="204" y="370" type="curve" smooth="yes"/>
      <point x="204" y="397"/>
      <point x="223" y="416"/>
      <point x="265" y="416" type="curve" smooth="yes"/>
      <point x="283" y="416"/>
      <point x="303" y="412"/>
      <point x="314" y="409" type="curve"/>
      <point x="337" y="509" type="line"/>
      <point x="315" y="519"/>
      <point x="273" y="526"/>
      <point x="232" y="526" type="curve" smooth="yes"/>
      <point x="103" y="526"/>
      <point x="55" y="464"/>
      <point x="55" y="393" type="curve" smooth="yes"/>
      <point x="55" y="326"/>
      <point x="101" y="295"/>
      <point x="147" y="280" type="curve"/>
      <point x="147" y="274" type="line"/>
      <point x="102" y="264"/>
      <point x="55" y="231"/>
      <point x="55" y="150" type="curve" smooth="yes"/>
      <point x="55" y="53"/>
      <point x="122" y="-13"/>
    </contour>
  </outline>
</glyph>
<glyph name="roRua-thai" format="2">
  <advance width="513"/>
  <unicode hex="0E23"/>
  <note>
uni0E23
</note>
  <anchor x="425" y="0" name="bottom"/>
  <anchor x="451" y="506" name="top"/>
  <outline>
    <contour>
      <point x="256" y="-13" type="curve" smooth="yes"/>
      <point x="426" y="-13"/>
      <point x="478" y="67"/>
      <point x="478" y="152" type="curve" smooth="yes"/>
      <point x="478" y="241"/>
      <point x="422" y="278"/>
      <point x="319" y="312" type="curve" smooth="yes"/>
      <point x="241" y="338"/>
      <point x="196" y="351"/>
      <point x="196" y="379" type="curve" smooth="yes"/>
      <point x="196" y="403"/>
      <point x="224" y="415"/>
      <point x="278" y="415" type="curve" smooth="yes"/>
      <point x="336" y="415"/>
      <point x="406" y="397"/>
      <point x="440" y="382" type="curve"/>
      <point x="440" y="499" type="line"/>
      <point x="408" y="516"/>
      <point x="346" y="530"/>
      <point x="271" y="530" type="curve" smooth="yes"/>
      <point x="136" y="530"/>
      <point x="48" y="483"/>
      <point x="48" y="377" type="curve" smooth="yes"/>
      <point x="48" y="285"/>
      <point x="111" y="246"/>
      <point x="216" y="212" type="curve" smooth="yes"/>
      <point x="287" y="189"/>
      <point x="330" y="174"/>
      <point x="330" y="145" type="curve" smooth="yes"/>
      <point x="330" y="119"/>
      <point x="302" y="105"/>
      <point x="250" y="105" type="curve" smooth="yes"/>
      <point x="181" y="105"/>
      <point x="115" y="133"/>
      <point x="76" y="155" type="curve"/>
      <point x="34" y="36" type="line"/>
      <point x="94" y="4"/>
      <point x="177" y="-13"/>
    </contour>
  </outline>
</glyph>
<glyph name="ru-thai" format="2">
  <advance width="625"/>
  <unicode hex="0E24"/>
  <anchor x="555" y="-184" name="bottom"/>
  <anchor x="538" y="506" name="top"/>
  <outline>
    <contour>
      <point x="405" y="-202" type="line"/>
      <point x="555" y="-202" type="line"/>
      <point x="555" y="94" type="line"/>
      <point x="405" y="94" type="line"/>
    </contour>
    <component base="thoThung-thai"/>
  </outline>
</glyph>
<glyph name="lu-thai" format="2">
  <advance width="637"/>
  <unicode hex="0E26"/>
  <anchor x="567" y="-184" name="bottom"/>
  <anchor x="541" y="506" name="top"/>
  <outline>
    <contour>
      <point x="417" y="-202" type="line"/>
      <point x="567" y="-202" type="line"/>
      <point x="567" y="94" type="line"/>
      <point x="417" y="94" type="line"/>
    </contour>
    <component base="phoSamphao-thai"/>
  </outline>
</glyph>
<glyph name="woWaen-thai" format="2">
  <advance width="514"/>
  <unicode hex="0E27"/>
  <anchor x="397" y="0" name="bottom"/>
  <anchor x="458" y="506" name="top"/>
  <outline>
    <contour>
      <point x="216" y="-13" type="curve" smooth="yes"/>
      <point x="375" y="-13"/>
      <point x="465" y="80"/>
      <point x="465" y="261" type="curve" smooth="yes"/>
      <point x="465" y="430"/>
      <point x="387" y="530"/>
      <point x="203" y="530" type="curve" smooth="yes"/>
      <point x="144" y="530"/>
      <point x="91" y="519"/>
      <point x="50" y="501" type="curve"/>
      <point x="50" y="378" type="line"/>
      <point x="81" y="396"/>
      <point x="132" y="410"/>
      <point x="176" y="410" type="curve" smooth="yes"/>
      <point x="269" y="410"/>
      <point x="312" y="357"/>
      <point x="312" y="261" type="curve" smooth="yes"/>
      <point x="312" y="158"/>
      <point x="264" y="107"/>
      <point x="190" y="107" type="curve" smooth="yes"/>
      <point x="150" y="107"/>
      <point x="105" y="122"/>
      <point x="76" y="138" type="curve"/>
      <point x="36" y="30" type="line"/>
      <point x="88" y="3"/>
      <point x="148" y="-13"/>
    </contour>
  </outline>
</glyph>
<glyph name="soSala-thai" format="2">
  <advance width="659"/>
  <unicode hex="0E28"/>
  <anchor x="574" y="0" name="bottom"/>
  <anchor x="551" y="506" name="top"/>
  <outline>
    <contour>
      <point x="70" y="0" type="line"/>
      <point x="219" y="0" type="line"/>
      <point x="219" y="59" type="line" smooth="yes"/>
      <point x="219" y="122"/>
      <point x="241" y="175"/>
      <point x="340" y="175" type="curve" smooth="yes"/>
      <point x="364" y="175" type="line"/>
      <point x="364" y="286" type="line"/>
      <point x="340" y="286" type="line" smooth="yes"/>
      <point x="278" y="286"/>
      <point x="248" y="275"/>
      <point x="222" y="226" type="curve"/>
      <point x="219" y="227" type="line"/>
      <point x="219" y="305" type="line" smooth="yes"/>
      <point x="219" y="370"/>
      <point x="250" y="410"/>
      <point x="324" y="410" type="curve" smooth="yes"/>
      <point x="397" y="410"/>
      <point x="428" y="370"/>
      <point x="428" y="305" type="curve" smooth="yes"/>
      <point x="428" y="0" type="line"/>
      <point x="577" y="0" type="line"/>
      <point x="577" y="302" type="line" smooth="yes"/>
      <point x="577" y="380"/>
      <point x="556" y="440"/>
      <point x="493" y="462" type="curve"/>
      <point x="462" y="512"/>
      <point x="401" y="530"/>
      <point x="325" y="530" type="curve" smooth="yes"/>
      <point x="148" y="530"/>
      <point x="70" y="450"/>
      <point x="70" y="303" type="curve" smooth="yes"/>
    </contour>
    <contour>
      <point x="498" y="409" type="line"/>
      <point x="587" y="435"/>
      <point x="623" y="493"/>
      <point x="623" y="551" type="curve"/>
      <point x="492" y="551" type="line"/>
      <point x="491" y="518"/>
      <point x="463" y="494"/>
      <point x="416" y="478" type="curve"/>
    </contour>
  </outline>
</glyph>
<glyph name="soRusi-thai" format="2">
  <advance width="675"/>
  <unicode hex="0E29"/>
  <anchor x="552" y="0" name="bottom"/>
  <anchor x="582" y="506" name="top"/>
  <outline>
    <contour>
      <point x="326" y="-13" type="curve" smooth="yes"/>
      <point x="508" y="-13"/>
      <point x="581" y="68"/>
      <point x="581" y="215" type="curve" smooth="yes"/>
      <point x="581" y="517" type="line"/>
      <point x="432" y="517" type="line"/>
      <point x="432" y="207" type="line" smooth="yes"/>
      <point x="432" y="136"/>
      <point x="402" y="106"/>
      <point x="328" y="106" type="curve" smooth="yes"/>
      <point x="250" y="106"/>
      <point x="219" y="141"/>
      <point x="219" y="207" type="curve" smooth="yes"/>
      <point x="219" y="517" type="line"/>
      <point x="70" y="517" type="line"/>
      <point x="70" y="215" type="line" smooth="yes"/>
      <point x="70" y="68"/>
      <point x="143" y="-13"/>
    </contour>
    <contour>
      <point x="390" y="204" type="curve" smooth="yes"/>
      <point x="639" y="204" type="line"/>
      <point x="639" y="299" type="line"/>
      <point x="399" y="299" type="line" smooth="yes"/>
      <point x="380" y="299"/>
      <point x="369" y="312"/>
      <point x="369" y="329" type="curve" smooth="yes"/>
      <point x="369" y="337"/>
      <point x="371" y="348"/>
      <point x="375" y="356" type="curve"/>
      <point x="286" y="374" type="line"/>
      <point x="273" y="358"/>
      <point x="266" y="330"/>
      <point x="266" y="306" type="curve" smooth="yes"/>
      <point x="266" y="257"/>
      <point x="295" y="204"/>
    </contour>
  </outline>
</glyph>
<glyph name="soSua-thai" format="2">
  <advance width="602"/>
  <unicode hex="0E2A"/>
  <note>
uni0E2A
</note>
  <anchor x="529" y="0" name="bottom"/>
  <anchor x="529" y="506" name="top"/>
  <outline>
    <contour>
      <point x="382" y="0" type="line"/>
      <point x="529" y="0" type="line"/>
      <point x="529" y="328" type="line" smooth="yes"/>
      <point x="529" y="403"/>
      <point x="506" y="453"/>
      <point x="450" y="468" type="curve"/>
      <point x="424" y="518"/>
      <point x="364" y="530"/>
      <point x="293" y="530" type="curve" smooth="yes"/>
      <point x="201" y="530"/>
      <point x="127" y="507"/>
      <point x="89" y="489" type="curve"/>
      <point x="89" y="366" type="line"/>
      <point x="137" y="392"/>
      <point x="207" y="415"/>
      <point x="276" y="415" type="curve" smooth="yes"/>
      <point x="348" y="415"/>
      <point x="382" y="392"/>
      <point x="382" y="335" type="curve" smooth="yes"/>
    </contour>
    <contour>
      <point x="218" y="-10" type="curve" smooth="yes"/>
      <point x="255" y="-10"/>
      <point x="292" y="-4"/>
      <point x="317" y="5" type="curve"/>
      <point x="304" y="97" type="line"/>
      <point x="291" y="94"/>
      <point x="274" y="90"/>
      <point x="258" y="90" type="curve" smooth="yes"/>
      <point x="216" y="90"/>
      <point x="188" y="108"/>
      <point x="188" y="143" type="curve" smooth="yes"/>
      <point x="188" y="177"/>
      <point x="215" y="198"/>
      <point x="295" y="206" type="curve" smooth="yes"/>
      <point x="406" y="217" type="line"/>
      <point x="406" y="324" type="line"/>
      <point x="278" y="314" type="line" smooth="yes"/>
      <point x="112" y="301"/>
      <point x="39" y="238"/>
      <point x="39" y="138" type="curve" smooth="yes"/>
      <point x="39" y="44"/>
      <point x="103" y="-10"/>
    </contour>
    <contour>
      <point x="447" y="409" type="line"/>
      <point x="536" y="435"/>
      <point x="572" y="493"/>
      <point x="572" y="551" type="curve"/>
      <point x="441" y="551" type="line"/>
      <point x="440" y="518"/>
      <point x="412" y="494"/>
      <point x="365" y="478" type="curve"/>
    </contour>
  </outline>
</glyph>
<glyph name="hoHip-thai" format="2">
  <advance width="622"/>
  <unicode hex="0E2B"/>
  <note>
uni0E2B
</note>
  <anchor x="564" y="0" name="bottom"/>
  <anchor x="535" y="506" name="top"/>
  <outline>
    <contour>
      <point x="79" y="0" type="line"/>
      <point x="227" y="0" type="line"/>
      <point x="227" y="152" type="line"/>
      <point x="566" y="512" type="line"/>
      <point x="566" y="517" type="line"/>
      <point x="401" y="517" type="line"/>
      <point x="231" y="328" type="line"/>
      <point x="227" y="328" type="line"/>
      <point x="227" y="517" type="line"/>
      <point x="79" y="517" type="line"/>
    </contour>
    <contour>
      <point x="414" y="0" type="line"/>
      <point x="564" y="0" type="line"/>
      <point x="564" y="194" type="line" smooth="yes"/>
      <point x="564" y="289"/>
      <point x="502" y="364"/>
      <point x="383" y="364" type="curve"/>
      <point x="295" y="260" type="line"/>
      <point x="372" y="260"/>
      <point x="414" y="235"/>
      <point x="414" y="169" type="curve" smooth="yes"/>
    </contour>
  </outline>
</glyph>
<glyph name="loChula-thai" format="2">
  <advance width="709"/>
  <unicode hex="0E2C"/>
  <anchor x="598" y="0" name="bottom"/>
  <outline>
    <contour>
      <point x="111" y="0" type="line"/>
      <point x="260" y="0" type="line"/>
      <point x="313" y="141" type="line" smooth="yes"/>
      <point x="328" y="182"/>
      <point x="340" y="220"/>
      <point x="352" y="285" type="curve"/>
      <point x="356" y="285" type="line"/>
      <point x="368" y="221"/>
      <point x="379" y="185"/>
      <point x="394" y="142" type="curve" smooth="yes"/>
      <point x="445" y="0" type="line"/>
      <point x="601" y="0" type="line"/>
      <point x="667" y="399" type="line" smooth="yes"/>
      <point x="675" y="447"/>
      <point x="661" y="504"/>
      <point x="603" y="524" type="curve"/>
      <point x="603" y="528" type="line"/>
      <point x="681" y="541"/>
      <point x="712" y="598"/>
      <point x="712" y="669" type="curve" smooth="yes"/>
      <point x="712" y="674" type="line"/>
      <point x="569" y="674" type="line"/>
      <point x="569" y="669" type="line" smooth="yes"/>
      <point x="569" y="618"/>
      <point x="542" y="580"/>
      <point x="450" y="580" type="curve" smooth="yes"/>
      <point x="370" y="580" type="line"/>
      <point x="370" y="483" type="line"/>
      <point x="432" y="483" type="line" smooth="yes"/>
      <point x="505" y="483"/>
      <point x="533" y="456"/>
      <point x="521" y="385" type="curve" smooth="yes"/>
      <point x="508" y="309" type="line" smooth="yes"/>
      <point x="502" y="273"/>
      <point x="497" y="217"/>
      <point x="495" y="159" type="curve"/>
      <point x="491" y="159" type="line"/>
      <point x="474" y="215"/>
      <point x="460" y="255"/>
      <point x="443" y="297" type="curve" smooth="yes"/>
      <point x="397" y="410" type="line"/>
      <point x="312" y="410" type="line"/>
      <point x="266" y="297" type="line" smooth="yes"/>
      <point x="249" y="254"/>
      <point x="235" y="215"/>
      <point x="217" y="159" type="curve"/>
      <point x="214" y="159" type="line"/>
      <point x="214" y="224"/>
      <point x="208" y="280"/>
      <point x="204" y="310" type="curve" smooth="yes"/>
      <point x="179" y="517" type="line"/>
      <point x="31" y="517" type="line"/>
    </contour>
  </outline>
</glyph>
<glyph name="oAng-thai" format="2">
  <advance width="593"/>
  <unicode hex="0E2D"/>
  <note>
uni0E2D
</note>
  <anchor x="481" y="0" name="bottom"/>
  <anchor x="511" y="506" name="top"/>
  <outline>
    <contour>
      <point x="288" y="-13" type="curve" smooth="yes"/>
      <point x="471" y="-13"/>
      <point x="547" y="83"/>
      <point x="547" y="256" type="curve" smooth="yes"/>
      <point x="547" y="423"/>
      <point x="470" y="530"/>
      <point x="276" y="530" type="curve" smooth="yes"/>
      <point x="202" y="530"/>
      <point x="119" y="514"/>
      <point x="76" y="492" type="curve"/>
      <point x="76" y="368" type="line"/>
      <point x="117" y="389"/>
      <point x="188" y="410"/>
      <point x="248" y="410" type="curve" smooth="yes"/>
      <point x="358" y="410"/>
      <point x="393" y="354"/>
      <point x="393" y="247" type="curve" smooth="yes"/>
      <point x="393" y="134"/>
      <point x="354" y="98"/>
      <point x="287" y="98" type="curve" smooth="yes"/>
      <point x="224" y="98"/>
      <point x="195" y="130"/>
      <point x="195" y="199" type="curve" smooth="yes"/>
      <point x="195" y="212" type="line"/>
      <point x="294" y="212" type="line"/>
      <point x="294" y="305" type="line"/>
      <point x="54" y="305" type="line"/>
      <point x="50" y="278"/>
      <point x="48" y="235"/>
      <point x="48" y="210" type="curve" smooth="yes"/>
      <point x="48" y="64"/>
      <point x="125" y="-13"/>
    </contour>
  </outline>
</glyph>
<glyph name="hoNokhuk-thai" format="2">
  <advance width="596"/>
  <unicode hex="0E2E"/>
  <anchor x="481" y="0" name="bottom"/>
  <anchor x="504" y="506" name="top"/>
  <outline>
    <contour>
      <point x="287" y="-13" type="curve" smooth="yes"/>
      <point x="471" y="-13"/>
      <point x="547" y="87"/>
      <point x="547" y="248" type="curve" smooth="yes"/>
      <point x="547" y="351"/>
      <point x="517" y="421"/>
      <point x="450" y="455" type="curve"/>
      <point x="413" y="509"/>
      <point x="350" y="530"/>
      <point x="273" y="530" type="curve" smooth="yes"/>
      <point x="202" y="530"/>
      <point x="118" y="514"/>
      <point x="75" y="492" type="curve"/>
      <point x="75" y="368" type="line"/>
      <point x="119" y="390"/>
      <point x="186" y="410"/>
      <point x="249" y="410" type="curve" smooth="yes"/>
      <point x="352" y="410"/>
      <point x="393" y="360"/>
      <point x="393" y="244" type="curve" smooth="yes"/>
      <point x="393" y="134"/>
      <point x="353" y="98"/>
      <point x="287" y="98" type="curve" smooth="yes"/>
      <point x="224" y="98"/>
      <point x="195" y="130"/>
      <point x="195" y="199" type="curve" smooth="yes"/>
      <point x="195" y="212" type="line"/>
      <point x="294" y="212" type="line"/>
      <point x="294" y="305" type="line"/>
      <point x="54" y="305" type="line"/>
      <point x="50" y="278"/>
      <point x="48" y="235"/>
      <point x="48" y="210" type="curve" smooth="yes"/>
      <point x="48" y="64"/>
      <point x="126" y="-13"/>
    </contour>
    <contour>
      <point x="445" y="409" type="line"/>
      <point x="534" y="435"/>
      <point x="570" y="493"/>
      <point x="570" y="551" type="curve"/>
      <point x="439" y="551" type="line"/>
      <point x="438" y="518"/>
      <point x="410" y="494"/>
      <point x="363" y="478" type="curve"/>
    </contour>
  </outline>
</glyph>
<glyph name="paiyannoi-thai" format="2">
  <advance width="543"/>
  <unicode hex="0E2F"/>
  <outline>
    <contour>
      <point x="317" y="0" type="line"/>
      <point x="467" y="0" type="line"/>
      <point x="467" y="517" type="line"/>
      <point x="317" y="517" type="line"/>
      <point x="317" y="391" type="line" smooth="yes"/>
      <point x="317" y="336"/>
      <point x="291" y="310"/>
      <point x="234" y="310" type="curve" smooth="yes"/>
      <point x="182" y="310"/>
      <point x="154" y="334"/>
      <point x="154" y="372" type="curve" smooth="yes"/>
      <point x="154" y="409"/>
      <point x="180" y="426"/>
      <point x="212" y="426" type="curve" smooth="yes"/>
      <point x="219" y="426"/>
      <point x="228" y="425"/>
      <point x="241" y="422" type="curve"/>
      <point x="252" y="515" type="line"/>
      <point x="224" y="524"/>
      <point x="198" y="526"/>
      <point x="179" y="526" type="curve" smooth="yes"/>
      <point x="75" y="526"/>
      <point x="13" y="467"/>
      <point x="13" y="368" type="curve" smooth="yes"/>
      <point x="13" y="252"/>
      <point x="99" y="197"/>
      <point x="199" y="197" type="curve" smooth="yes"/>
      <point x="288" y="197"/>
      <point x="350" y="237"/>
      <point x="353" y="305" type="curve"/>
      <point x="317" y="301" type="line"/>
    </contour>
  </outline>
</glyph>
<glyph name="maiHanaKat-thai" format="2">
  <unicode hex="0E31"/>
  <anchor x="-79" y="506" name="_top"/>
  <anchor x="-67" y="714" name="top"/>
  <outline>
    <contour>
      <point x="-225" y="604" type="curve" smooth="yes"/>
      <point x="27" y="604" type="line"/>
      <point x="27" y="701" type="line"/>
      <point x="-188" y="701" type="line" smooth="yes"/>
      <point x="-215" y="701"/>
      <point x="-225" y="711"/>
      <point x="-225" y="730" type="curve" smooth="yes"/>
      <point x="-225" y="738"/>
      <point x="-223" y="749"/>
      <point x="-220" y="758" type="curve"/>
      <point x="-329" y="772" type="line"/>
      <point x="-342" y="749"/>
      <point x="-349" y="722"/>
      <point x="-349" y="699" type="curve" smooth="yes"/>
      <point x="-349" y="651"/>
      <point x="-319" y="604"/>
    </contour>
  </outline>
</glyph>
<glyph name="saraAa-thai" format="2">
  <advance width="435"/>
  <unicode hex="0E32"/>
  <outline>
    <contour>
      <point x="215" y="0" type="line"/>
      <point x="365" y="0" type="line"/>
      <point x="365" y="365" type="line" smooth="yes"/>
      <point x="365" y="490"/>
      <point x="286" y="530"/>
      <point x="176" y="530" type="curve" smooth="yes"/>
      <point x="104" y="530"/>
      <point x="49" y="514"/>
      <point x="20" y="501" type="curve"/>
      <point x="20" y="383" type="line"/>
      <point x="52" y="398"/>
      <point x="88" y="411"/>
      <point x="132" y="411" type="curve" smooth="yes"/>
      <point x="190" y="411"/>
      <point x="215" y="389"/>
      <point x="215" y="338" type="curve" smooth="yes"/>
    </contour>
  </outline>
</glyph>
<glyph name="saraI-thai" format="2">
  <unicode hex="0E34"/>
  <anchor x="-79" y="506" name="_top"/>
  <anchor x="-79" y="687" name="top"/>
  <outline>
    <contour>
      <point x="-537" y="604" type="line"/>
      <point x="-79" y="604" type="line"/>
      <point x="-79" y="709" type="line"/>
      <point x="-436" y="709" type="line"/>
      <point x="-537" y="667" type="line"/>
    </contour>
  </outline>
</glyph>
<glyph name="saraIi-thai" format="2">
  <unicode hex="0E35"/>
  <anchor x="-78" y="501" name="_top"/>
  <anchor x="-79" y="742" name="top"/>
  <outline>
    <contour>
      <point x="-537" y="604" type="line"/>
      <point x="-79" y="604" type="line"/>
      <point x="-79" y="709" type="line"/>
      <point x="-436" y="709" type="line"/>
      <point x="-537" y="667" type="line"/>
    </contour>
    <contour>
      <point x="-207" y="665" type="line"/>
      <point x="-79" y="665" type="line"/>
      <point x="-79" y="778" type="line"/>
      <point x="-207" y="778" type="line"/>
    </contour>
  </outline>
</glyph>
<glyph name="saraUe-thai" format="2">
  <unicode hex="0E36"/>
  <anchor x="-79" y="506" name="_top"/>
  <anchor x="-81" y="742" name="top"/>
  <outline>
    <contour>
      <point x="-537" y="604" type="line"/>
      <point x="-158" y="604" type="line" smooth="yes"/>
      <point x="-89" y="604"/>
      <point x="-56" y="644"/>
      <point x="-56" y="697" type="curve" smooth="yes"/>
      <point x="-56" y="751"/>
      <point x="-94" y="791"/>
      <point x="-160" y="791" type="curve" smooth="yes"/>
      <point x="-222" y="791"/>
      <point x="-260" y="754"/>
      <point x="-260" y="705" type="curve" smooth="yes"/>
      <point x="-260" y="695"/>
      <point x="-258" y="683"/>
      <point x="-253" y="670" type="curve"/>
      <point x="-226" y="709" type="line"/>
      <point x="-436" y="709" type="line"/>
      <point x="-537" y="667" type="line"/>
    </contour>
    <contour>
      <point x="-160" y="657" type="curve" smooth="yes"/>
      <point x="-189" y="657"/>
      <point x="-203" y="675"/>
      <point x="-203" y="697" type="curve" smooth="yes"/>
      <point x="-203" y="719"/>
      <point x="-188" y="736"/>
      <point x="-161" y="736" type="curve" smooth="yes"/>
      <point x="-134" y="736"/>
      <point x="-118" y="719"/>
      <point x="-118" y="696" type="curve" smooth="yes"/>
      <point x="-118" y="674"/>
      <point x="-132" y="657"/>
    </contour>
  </outline>
</glyph>
<glyph name="saraUee-thai" format="2">
  <unicode hex="0E37"/>
  <anchor x="-79" y="506" name="_top"/>
  <anchor x="-128" y="742" name="top"/>
  <outline>
    <contour>
      <point x="-536" y="604" type="line"/>
      <point x="-78" y="604" type="line"/>
      <point x="-78" y="709" type="line"/>
      <point x="-435" y="709" type="line"/>
      <point x="-536" y="667" type="line"/>
    </contour>
    <contour>
      <point x="-326" y="665" type="line"/>
      <point x="-231" y="665" type="line"/>
      <point x="-231" y="778" type="line"/>
      <point x="-326" y="778" type="line"/>
    </contour>
    <contour>
      <point x="-172" y="665" type="line"/>
      <point x="-78" y="665" type="line"/>
      <point x="-78" y="778" type="line"/>
      <point x="-172" y="778" type="line"/>
    </contour>
  </outline>
</glyph>
<glyph name="saraU-thai" format="2">
  <unicode hex="0E38"/>
  <anchor x="-79" y="0" name="_bottom"/>
  <anchor x="-79" y="-271" name="bottom"/>
  <outline>
    <contour>
      <point x="-207" y="-261" type="line"/>
      <point x="-79" y="-261" type="line"/>
      <point x="-79" y="-137" type="line" smooth="yes"/>
      <point x="-79" y="-92"/>
      <point x="-103" y="-64"/>
      <point x="-168" y="-64" type="curve" smooth="yes"/>
      <point x="-202" y="-64"/>
      <point x="-237" y="-72"/>
      <point x="-256" y="-79" type="curve"/>
      <point x="-249" y="-151" type="line"/>
      <point x="-243" y="-149"/>
      <point x="-236" y="-147"/>
      <point x="-229" y="-147" type="curve" smooth="yes"/>
      <point x="-214" y="-147"/>
      <point x="-207" y="-155"/>
      <point x="-207" y="-172" type="curve" smooth="yes"/>
    </contour>
  </outline>
</glyph>
<glyph name="saraUu-thai" format="2">
  <unicode hex="0E39"/>
  <anchor x="-79" y="0" name="_bottom"/>
  <anchor x="-79" y="-265" name="bottom"/>
  <outline>
    <contour>
      <point x="-233" y="-265" type="curve" smooth="yes"/>
      <point x="-125" y="-265"/>
      <point x="-78" y="-230"/>
      <point x="-78" y="-164" type="curve" smooth="yes"/>
      <point x="-78" y="-67" type="line"/>
      <point x="-200" y="-67" type="line"/>
      <point x="-200" y="-148" type="line" smooth="yes"/>
      <point x="-200" y="-171"/>
      <point x="-209" y="-184"/>
      <point x="-237" y="-184" type="curve" smooth="yes"/>
      <point x="-264" y="-184"/>
      <point x="-272" y="-171"/>
      <point x="-272" y="-148" type="curve" smooth="yes"/>
      <point x="-272" y="-125" type="line" smooth="yes"/>
      <point x="-272" y="-86"/>
      <point x="-297" y="-64"/>
      <point x="-355" y="-64" type="curve" smooth="yes"/>
      <point x="-374" y="-64"/>
      <point x="-409" y="-66"/>
      <point x="-427" y="-74" type="curve"/>
      <point x="-420" y="-141" type="line"/>
      <point x="-400" y="-136"/>
      <point x="-387" y="-139"/>
      <point x="-387" y="-161" type="curve" smooth="yes"/>
      <point x="-387" y="-178" type="line" smooth="yes"/>
      <point x="-387" y="-230"/>
      <point x="-340" y="-265"/>
    </contour>
  </outline>
</glyph>
<glyph name="phinthu-thai" format="2">
  <unicode hex="0E3A"/>
  <anchor x="-79" y="0" name="_bottom"/>
  <anchor x="-79" y="-214" name="bottom"/>
  <outline>
    <contour>
      <point x="-151" y="-208" type="curve" smooth="yes"/>
      <point x="-101" y="-208"/>
      <point x="-72" y="-181"/>
      <point x="-72" y="-131" type="curve" smooth="yes"/>
      <point x="-72" y="-81"/>
      <point x="-101" y="-54"/>
      <point x="-151" y="-54" type="curve" smooth="yes"/>
      <point x="-202" y="-54"/>
      <point x="-231" y="-81"/>
      <point x="-231" y="-131" type="curve" smooth="yes"/>
      <point x="-231" y="-181"/>
      <point x="-202" y="-208"/>
    </contour>
  </outline>
</glyph>
<glyph name="baht" format="2">
  <advance width="581"/>
  <unicode hex="0E3F"/>
  <outline>
    <contour>
      <point x="67" y="36" type="line"/>
      <point x="303" y="36" type="line" smooth="yes"/>
      <point x="440" y="36"/>
      <point x="526" y="103"/>
      <point x="526" y="220" type="curve" smooth="yes"/>
      <point x="526" y="316"/>
      <point x="467" y="359"/>
      <point x="389" y="372" type="curve"/>
      <point x="389" y="377" type="line"/>
      <point x="464" y="389"/>
      <point x="511" y="444"/>
      <point x="511" y="519" type="curve" smooth="yes"/>
      <point x="511" y="627"/>
      <point x="438" y="678"/>
      <point x="273" y="678" type="curve" smooth="yes"/>
      <point x="67" y="678" type="line"/>
    </contour>
    <contour>
      <point x="176" y="147" type="line"/>
      <point x="176" y="316" type="line"/>
      <point x="297" y="316" type="line" smooth="yes"/>
      <point x="377" y="316"/>
      <point x="404" y="279"/>
      <point x="404" y="234" type="curve" smooth="yes"/>
      <point x="404" y="183"/>
      <point x="377" y="147"/>
      <point x="301" y="147" type="curve" smooth="yes"/>
    </contour>
    <contour>
      <point x="176" y="422" type="line"/>
      <point x="176" y="569" type="line"/>
      <point x="285" y="569" type="line" smooth="yes"/>
      <point x="356" y="569"/>
      <point x="390" y="546"/>
      <point x="390" y="499" type="curve" smooth="yes"/>
      <point x="390" y="453"/>
      <point x="365" y="422"/>
      <point x="292" y="422" type="curve" smooth="yes"/>
    </contour>
    <contour>
      <point x="238" y="-59" type="line"/>
      <point x="309" y="-59" type="line"/>
      <point x="309" y="760" type="line"/>
      <point x="238" y="760" type="line"/>
    </contour>
  </outline>
</glyph>
<glyph name="saraE-thai" format="2">
  <advance width="341"/>
  <unicode hex="0E40"/>
  <outline>
    <contour>
      <point x="224" y="-10" type="curve" smooth="yes"/>
      <point x="260" y="-10"/>
      <point x="293" y="-2"/>
      <point x="318" y="10" type="curve"/>
      <point x="304" y="105" type="line"/>
      <point x="293" y="101"/>
      <point x="280" y="99"/>
      <point x="270" y="99" type="curve" smooth="yes"/>
      <point x="246" y="99"/>
      <point x="235" y="110"/>
      <point x="235" y="133" type="curve" smooth="yes"/>
      <point x="235" y="517" type="line"/>
      <point x="85" y="517" type="line"/>
      <point x="85" y="115" type="line" smooth="yes"/>
      <point x="85" y="32"/>
      <point x="134" y="-10"/>
    </contour>
  </outline>
</glyph>
<glyph name="saraO-thai" format="2">
  <advance width="349"/>
  <unicode hex="0E42"/>
  <outline>
    <contour>
      <point x="104" y="423" type="line"/>
      <point x="254" y="423" type="line"/>
      <point x="254" y="558" type="line" smooth="yes"/>
      <point x="254" y="619"/>
      <point x="238" y="654"/>
      <point x="203" y="674" type="curve"/>
      <point x="204" y="677" type="line"/>
      <point x="372" y="677" type="line"/>
      <point x="372" y="785" type="line"/>
      <point x="117" y="785" type="line"/>
      <point x="16" y="737" type="line"/>
      <point x="16" y="677" type="line"/>
      <point x="74" y="677"/>
      <point x="104" y="647"/>
      <point x="104" y="572" type="curve" smooth="yes"/>
    </contour>
    <component base="saraE-thai" xOffset="19"/>
  </outline>
</glyph>
<glyph name="saraAiMaimuan-thai" format="2">
  <advance width="338"/>
  <unicode hex="0E43"/>
  <outline>
    <contour>
      <point x="224" y="-10" type="curve" smooth="yes"/>
      <point x="260" y="-10"/>
      <point x="293" y="-2"/>
      <point x="318" y="10" type="curve"/>
      <point x="304" y="105" type="line"/>
      <point x="293" y="101"/>
      <point x="280" y="99"/>
      <point x="269" y="99" type="curve" smooth="yes"/>
      <point x="246" y="99"/>
      <point x="235" y="110"/>
      <point x="235" y="133" type="curve" smooth="yes"/>
      <point x="235" y="457" type="line" smooth="yes"/>
      <point x="235" y="503"/>
      <point x="252" y="514"/>
      <point x="285" y="557" type="curve" smooth="yes"/>
      <point x="308" y="586"/>
      <point x="333" y="621"/>
      <point x="333" y="672" type="curve" smooth="yes"/>
      <point x="333" y="757"/>
      <point x="267" y="799"/>
      <point x="162" y="799" type="curve" smooth="yes"/>
      <point x="93" y="799"/>
      <point x="41" y="780"/>
      <point x="23" y="771" type="curve"/>
      <point x="23" y="661" type="line"/>
      <point x="45" y="675"/>
      <point x="73" y="684"/>
      <point x="109" y="684" type="curve" smooth="yes"/>
      <point x="156" y="684"/>
      <point x="177" y="667"/>
      <point x="177" y="638" type="curve" smooth="yes"/>
      <point x="177" y="611"/>
      <point x="157" y="592"/>
      <point x="131" y="566" type="curve" smooth="yes"/>
      <point x="92" y="526"/>
      <point x="85" y="509"/>
      <point x="85" y="461" type="curve" smooth="yes"/>
      <point x="85" y="115" type="line" smooth="yes"/>
      <point x="85" y="32"/>
      <point x="134" y="-10"/>
    </contour>
  </outline>
</glyph>
<glyph name="saraAiMaimalai-thai" format="2">
  <advance width="347"/>
  <unicode hex="0E44"/>
  <outline>
    <contour>
      <point x="105" y="423" type="line"/>
      <point x="255" y="423" type="line"/>
      <point x="255" y="572" type="line" smooth="yes"/>
      <point x="255" y="652"/>
      <point x="297" y="677"/>
      <point x="346" y="677" type="curve"/>
      <point x="346" y="785" type="line"/>
      <point x="28" y="785" type="line"/>
      <point x="0" y="677" type="line"/>
      <point x="155" y="677" type="line"/>
      <point x="156" y="674" type="line"/>
      <point x="129" y="655"/>
      <point x="105" y="628"/>
      <point x="105" y="558" type="curve" smooth="yes"/>
    </contour>
    <component base="saraE-thai" xOffset="20"/>
  </outline>
</glyph>
<glyph name="lakkhangyao-thai" format="2">
  <advance width="435"/>
  <unicode hex="0E45"/>
  <outline>
    <contour>
      <point x="215" y="-202" type="line"/>
      <point x="365" y="-202" type="line"/>
      <point x="365" y="94" type="line"/>
      <point x="215" y="94" type="line"/>
    </contour>
    <component base="saraAa-thai"/>
  </outline>
</glyph>
<glyph name="maiyamok-thai" format="2">
  <advance width="637"/>
  <unicode hex="0E46"/>
  <outline>
    <contour>
      <point x="417" y="-202" type="line"/>
      <point x="567" y="-202" type="line"/>
      <point x="567" y="387" type="line" smooth="yes"/>
      <point x="567" y="502"/>
      <point x="506" y="530"/>
      <point x="432" y="530" type="curve" smooth="yes"/>
      <point x="378" y="530"/>
      <point x="339" y="515"/>
      <point x="321" y="481" type="curve"/>
      <point x="318" y="481" type="line"/>
      <point x="300" y="515"/>
      <point x="260" y="530"/>
      <point x="209" y="530" type="curve" smooth="yes"/>
      <point x="121" y="530"/>
      <point x="61" y="481"/>
      <point x="61" y="356" type="curve" smooth="yes"/>
      <point x="61" y="235"/>
      <point x="117" y="176"/>
      <point x="212" y="176" type="curve" smooth="yes"/>
      <point x="252" y="176"/>
      <point x="282" y="188"/>
      <point x="302" y="202" type="curve"/>
      <point x="276" y="295" type="line"/>
      <point x="266" y="291"/>
      <point x="255" y="289"/>
      <point x="245" y="289" type="curve" smooth="yes"/>
      <point x="213" y="289"/>
      <point x="198" y="306"/>
      <point x="198" y="358" type="curve" smooth="yes"/>
      <point x="198" y="406"/>
      <point x="210" y="424"/>
      <point x="237" y="424" type="curve" smooth="yes"/>
      <point x="260" y="424"/>
      <point x="274" y="412"/>
      <point x="274" y="383" type="curve" smooth="yes"/>
      <point x="274" y="354" type="line"/>
      <point x="344" y="354" type="line"/>
      <point x="344" y="383" type="line" smooth="yes"/>
      <point x="344" y="412"/>
      <point x="357" y="424"/>
      <point x="381" y="424" type="curve" smooth="yes"/>
      <point x="405" y="424"/>
      <point x="417" y="412"/>
      <point x="417" y="383" type="curve" smooth="yes"/>
    </contour>
  </outline>
</glyph>
<glyph name="maitaikhu-thai" format="2">
  <unicode hex="0E47"/>
  <anchor x="-79" y="506" name="_top"/>
  <anchor x="-201" y="815" name="top"/>
  <outline>
    <contour>
      <point x="-201" y="595" type="curve" smooth="yes"/>
      <point x="-140" y="595"/>
      <point x="-100" y="628"/>
      <point x="-100" y="700" type="curve" smooth="yes"/>
      <point x="-100" y="720" type="line"/>
      <point x="-201" y="720" type="line"/>
      <point x="-201" y="705" type="line" smooth="yes"/>
      <point x="-201" y="684"/>
      <point x="-212" y="670"/>
      <point x="-232" y="670" type="curve" smooth="yes"/>
      <point x="-256" y="670"/>
      <point x="-269" y="690"/>
      <point x="-273" y="716" type="curve"/>
      <point x="-293" y="716" type="line"/>
      <point x="-339" y="673" type="line"/>
      <point x="-361" y="673"/>
      <point x="-372" y="690"/>
      <point x="-372" y="715" type="curve" smooth="yes"/>
      <point x="-372" y="748"/>
      <point x="-352" y="764"/>
      <point x="-327" y="764" type="curve" smooth="yes"/>
      <point x="-101" y="764" type="line"/>
      <point x="-101" y="837" type="line"/>
      <point x="-353" y="837" type="line" smooth="yes"/>
      <point x="-417" y="837"/>
      <point x="-476" y="798"/>
      <point x="-476" y="717" type="curve" smooth="yes"/>
      <point x="-476" y="640"/>
      <point x="-421" y="598"/>
      <point x="-337" y="598" type="curve"/>
      <point x="-287" y="640" type="line"/>
      <point x="-271" y="611"/>
      <point x="-242" y="595"/>
    </contour>
  </outline>
</glyph>
<glyph name="maiEk-thai" format="2">
  <unicode hex="0E48"/>
  <anchor x="-79" y="506" name="_top"/>
  <anchor x="-79" y="815" name="top"/>
  <outline>
    <contour>
      <point x="-223" y="604" type="line"/>
      <point x="-85" y="604" type="line"/>
      <point x="-85" y="831" type="line"/>
      <point x="-223" y="831" type="line"/>
    </contour>
  </outline>
</glyph>
<glyph name="maiTho-thai" format="2">
  <unicode hex="0E49"/>
  <anchor x="-79" y="506" name="_top"/>
  <anchor x="-136" y="815" name="top"/>
  <outline>
    <contour>
      <point x="-381" y="604" type="line"/>
      <point x="-54" y="604" type="line"/>
      <point x="-54" y="701" type="line"/>
      <point x="-243" y="701" type="line"/>
      <point x="-239" y="675" type="line"/>
      <point x="-207" y="691"/>
      <point x="-192" y="718"/>
      <point x="-192" y="747" type="curve" smooth="yes"/>
      <point x="-192" y="801"/>
      <point x="-228" y="830"/>
      <point x="-288" y="830" type="curve" smooth="yes"/>
      <point x="-315" y="830"/>
      <point x="-360" y="824"/>
      <point x="-387" y="802" type="curve"/>
      <point x="-368" y="735" type="line"/>
      <point x="-359" y="739"/>
      <point x="-346" y="744"/>
      <point x="-335" y="744" type="curve" smooth="yes"/>
      <point x="-319" y="744"/>
      <point x="-307" y="733"/>
      <point x="-307" y="714" type="curve" smooth="yes"/>
      <point x="-307" y="677"/>
      <point x="-354" y="662"/>
      <point x="-381" y="654" type="curve"/>
    </contour>
  </outline>
</glyph>
<glyph name="maiTri-thai" format="2">
  <unicode hex="0E4A"/>
  <anchor x="-79" y="506" name="_top"/>
  <anchor x="-186" y="815" name="top"/>
  <outline>
    <contour>
      <point x="-339" y="599" type="curve" smooth="yes"/>
      <point x="-317" y="599"/>
      <point x="-291" y="603"/>
      <point x="-281" y="610" type="curve"/>
      <point x="-288" y="674" type="line"/>
      <point x="-296" y="671"/>
      <point x="-302" y="671"/>
      <point x="-308" y="671" type="curve" smooth="yes"/>
      <point x="-328" y="671"/>
      <point x="-341" y="686"/>
      <point x="-341" y="709" type="curve" smooth="yes"/>
      <point x="-341" y="733"/>
      <point x="-327" y="743"/>
      <point x="-315" y="745" type="curve"/>
      <point x="-278" y="723" type="line"/>
      <point x="-274" y="723" type="line"/>
      <point x="-236" y="745" type="line"/>
      <point x="-224" y="744"/>
      <point x="-208" y="733"/>
      <point x="-208" y="708" type="curve" smooth="yes"/>
      <point x="-208" y="685"/>
      <point x="-222" y="674"/>
      <point x="-238" y="668" type="curve"/>
      <point x="-238" y="604" type="line"/>
      <point x="-34" y="604" type="line"/>
      <point x="-34" y="695" type="line"/>
      <point x="-129" y="695" type="line"/>
      <point x="-125" y="679" type="line"/>
      <point x="-111" y="692"/>
      <point x="-102" y="711"/>
      <point x="-102" y="736" type="curve" smooth="yes"/>
      <point x="-102" y="784"/>
      <point x="-132" y="824"/>
      <point x="-221" y="828" type="curve"/>
      <point x="-277" y="790" type="line"/>
      <point x="-339" y="828" type="line"/>
      <point x="-408" y="824"/>
      <point x="-452" y="781"/>
      <point x="-452" y="711" type="curve" smooth="yes"/>
      <point x="-452" y="642"/>
      <point x="-410" y="599"/>
    </contour>
  </outline>
</glyph>
<glyph name="maiChattawa-thai" format="2">
  <unicode hex="0E4B"/>
  <anchor x="-79" y="506" name="_top"/>
  <anchor x="-122" y="815" name="top"/>
  <outline>
    <contour>
      <point x="-255" y="604" type="line"/>
      <point x="-135" y="604" type="line"/>
      <point x="-135" y="831" type="line"/>
      <point x="-255" y="831" type="line"/>
    </contour>
    <contour>
      <point x="-325" y="674" type="line"/>
      <point x="-66" y="674" type="line"/>
      <point x="-66" y="761" type="line"/>
      <point x="-325" y="761" type="line"/>
    </contour>
  </outline>
</glyph>
<glyph name="thanthakhat-thai" format="2">
  <unicode hex="0E4C"/>
  <anchor x="-79" y="506" name="_top"/>
  <anchor x="-86" y="741" name="top"/>
  <outline>
    <contour>
      <point x="-265" y="582" type="curve"/>
      <point x="-147" y="602" type="line"/>
      <point x="-152" y="612"/>
      <point x="-155" y="622"/>
      <point x="-155" y="632" type="curve" smooth="yes"/>
      <point x="-155" y="654"/>
      <point x="-141" y="662"/>
      <point x="-115" y="662" type="curve" smooth="yes"/>
      <point x="-19" y="662" type="line"/>
      <point x="-19" y="763" type="line"/>
      <point x="-164" y="763" type="line" smooth="yes"/>
      <point x="-257" y="763"/>
      <point x="-284" y="718"/>
      <point x="-284" y="662" type="curve" smooth="yes"/>
      <point x="-284" y="632"/>
      <point x="-276" y="601"/>
    </contour>
  </outline>
</glyph>
<glyph name="nikhahit-thai" format="2">
  <unicode hex="0E4D"/>
  <anchor x="-79" y="506" name="_top"/>
  <anchor x="-109" y="741" name="top"/>
  <outline>
    <contour>
      <point x="-181" y="582" type="curve" smooth="yes"/>
      <point x="-105" y="582"/>
      <point x="-55" y="618"/>
      <point x="-55" y="681" type="curve" smooth="yes"/>
      <point x="-55" y="744"/>
      <point x="-105" y="780"/>
      <point x="-181" y="780" type="curve" smooth="yes"/>
      <point x="-257" y="780"/>
      <point x="-306" y="744"/>
      <point x="-306" y="681" type="curve" smooth="yes"/>
      <point x="-306" y="618"/>
      <point x="-257" y="582"/>
    </contour>
    <contour>
      <point x="-181" y="640" type="curve" smooth="yes"/>
      <point x="-209" y="640"/>
      <point x="-226" y="656"/>
      <point x="-226" y="681" type="curve" smooth="yes"/>
      <point x="-226" y="706"/>
      <point x="-209" y="722"/>
      <point x="-181" y="722" type="curve" smooth="yes"/>
      <point x="-152" y="722"/>
      <point x="-135" y="706"/>
      <point x="-135" y="681" type="curve" smooth="yes"/>
      <point x="-135" y="656"/>
      <point x="-152" y="640"/>
    </contour>
  </outline>
</glyph>
<glyph name="yamakkan-thai" format="2">
  <unicode hex="0E4E"/>
  <anchor x="-79" y="506" name="_top"/>
  <anchor x="-85" y="739" name="top"/>
  <outline>
    <contour>
      <point x="-274" y="583" type="curve"/>
      <point x="-183" y="598" type="line"/>
      <point x="-187" y="606"/>
      <point x="-189" y="612"/>
      <point x="-189" y="620" type="curve" smooth="yes"/>
      <point x="-189" y="635"/>
      <point x="-180" y="648"/>
      <point x="-158" y="648" type="curve" smooth="yes"/>
      <point x="-150" y="648"/>
      <point x="-137" y="647"/>
      <point x="-127" y="638" type="curve"/>
      <point x="-90" y="664" type="line"/>
      <point x="-95" y="672"/>
      <point x="-97" y="681"/>
      <point x="-97" y="688" type="curve" smooth="yes"/>
      <point x="-97" y="710"/>
      <point x="-80" y="722"/>
      <point x="-56" y="722" type="curve" smooth="yes"/>
      <point x="-46" y="722"/>
      <point x="-31" y="720"/>
      <point x="-21" y="716" type="curve"/>
      <point x="-21" y="783" type="line"/>
      <point x="-39" y="791"/>
      <point x="-65" y="794"/>
      <point x="-83" y="794" type="curve" smooth="yes"/>
      <point x="-129" y="794"/>
      <point x="-172" y="773"/>
      <point x="-172" y="725" type="curve" smooth="yes"/>
      <point x="-172" y="711"/>
      <point x="-168" y="693"/>
      <point x="-158" y="682" type="curve"/>
      <point x="-144" y="692" type="line"/>
      <point x="-158" y="703"/>
      <point x="-173" y="713"/>
      <point x="-203" y="713" type="curve" smooth="yes"/>
      <point x="-251" y="713"/>
      <point x="-289" y="689"/>
      <point x="-289" y="637" type="curve" smooth="yes"/>
      <point x="-289" y="616"/>
      <point x="-283" y="596"/>
    </contour>
  </outline>
</glyph>
<glyph name="fongman-thai" format="2">
  <advance width="644"/>
  <unicode hex="0E4F"/>
  <outline>
    <contour>
      <point x="322" y="-13" type="curve" smooth="yes"/>
      <point x="504" y="-13"/>
      <point x="585" y="80"/>
      <point x="585" y="228" type="curve" smooth="yes"/>
      <point x="585" y="382"/>
      <point x="504" y="468"/>
      <point x="322" y="468" type="curve" smooth="yes"/>
      <point x="140" y="468"/>
      <point x="60" y="382"/>
      <point x="60" y="228" type="curve" smooth="yes"/>
      <point x="60" y="80"/>
      <point x="140" y="-13"/>
    </contour>
    <contour>
      <point x="321" y="72" type="curve" smooth="yes"/>
      <point x="216" y="72"/>
      <point x="167" y="128"/>
      <point x="167" y="228" type="curve" smooth="yes"/>
      <point x="167" y="335"/>
      <point x="216" y="383"/>
      <point x="321" y="383" type="curve" smooth="yes"/>
      <point x="426" y="383"/>
      <point x="476" y="335"/>
      <point x="476" y="228" type="curve" smooth="yes"/>
      <point x="476" y="128"/>
      <point x="426" y="72"/>
    </contour>
    <contour>
      <point x="321" y="125" type="curve" smooth="yes"/>
      <point x="390" y="125"/>
      <point x="420" y="167"/>
      <point x="420" y="228" type="curve" smooth="yes"/>
      <point x="420" y="295"/>
      <point x="390" y="330"/>
      <point x="321" y="330" type="curve" smooth="yes"/>
      <point x="252" y="330"/>
      <point x="223" y="295"/>
      <point x="223" y="228" type="curve" smooth="yes"/>
      <point x="223" y="167"/>
      <point x="252" y="125"/>
    </contour>
  </outline>
</glyph>
<glyph name="zero-thai" format="2">
  <advance width="567"/>
  <unicode hex="0E50"/>
  <outline>
    <contour>
      <point x="283" y="-13" type="curve" smooth="yes"/>
      <point x="437" y="-13"/>
      <point x="520" y="80"/>
      <point x="520" y="228" type="curve" smooth="yes"/>
      <point x="520" y="382"/>
      <point x="437" y="468"/>
      <point x="283" y="468" type="curve" smooth="yes"/>
      <point x="130" y="468"/>
      <point x="47" y="382"/>
      <point x="47" y="228" type="curve" smooth="yes"/>
      <point x="47" y="80"/>
      <point x="130" y="-13"/>
    </contour>
    <contour>
      <point x="283" y="100" type="curve" smooth="yes"/>
      <point x="221" y="100"/>
      <point x="191" y="143"/>
      <point x="191" y="228" type="curve" smooth="yes"/>
      <point x="191" y="318"/>
      <point x="221" y="355"/>
      <point x="283" y="355" type="curve" smooth="yes"/>
      <point x="344" y="355"/>
      <point x="375" y="318"/>
      <point x="375" y="228" type="curve" smooth="yes"/>
      <point x="375" y="143"/>
      <point x="344" y="100"/>
    </contour>
  </outline>
</glyph>
<glyph name="one-thai" format="2">
  <advance width="533"/>
  <unicode hex="0E51"/>
  <outline>
    <contour>
      <point x="252" y="-13" type="curve" smooth="yes"/>
      <point x="419" y="-13"/>
      <point x="486" y="91"/>
      <point x="486" y="235" type="curve" smooth="yes"/>
      <point x="486" y="378"/>
      <point x="419" y="465"/>
      <point x="250" y="465" type="curve" smooth="yes"/>
      <point x="107" y="465"/>
      <point x="42" y="404"/>
      <point x="42" y="290" type="curve" smooth="yes"/>
      <point x="42" y="188"/>
      <point x="94" y="131"/>
      <point x="176" y="131" type="curve" smooth="yes"/>
      <point x="209" y="131"/>
      <point x="245" y="141"/>
      <point x="262" y="157" type="curve"/>
      <point x="241" y="248" type="line"/>
      <point x="234" y="245"/>
      <point x="226" y="243"/>
      <point x="218" y="243" type="curve" smooth="yes"/>
      <point x="192" y="243"/>
      <point x="175" y="262"/>
      <point x="175" y="296" type="curve" smooth="yes"/>
      <point x="175" y="339"/>
      <point x="202" y="359"/>
      <point x="251" y="359" type="curve" smooth="yes"/>
      <point x="310" y="359"/>
      <point x="342" y="330"/>
      <point x="342" y="239" type="curve" smooth="yes"/>
      <point x="342" y="136"/>
      <point x="300" y="91"/>
      <point x="214" y="91" type="curve" smooth="yes"/>
      <point x="195" y="91"/>
      <point x="177" y="93"/>
      <point x="166" y="97" type="curve"/>
      <point x="166" y="0" type="line"/>
      <point x="191" y="-9"/>
      <point x="221" y="-13"/>
    </contour>
  </outline>
</glyph>
<glyph name="two-thai" format="2">
  <advance width="644"/>
  <unicode hex="0E52"/>
  <outline>
    <contour>
      <point x="328" y="-13" type="curve" smooth="yes"/>
      <point x="523" y="-13"/>
      <point x="590" y="74"/>
      <point x="590" y="217" type="curve" smooth="yes"/>
      <point x="590" y="350" type="line" smooth="yes"/>
      <point x="590" y="433"/>
      <point x="543" y="463"/>
      <point x="485" y="463" type="curve" smooth="yes"/>
      <point x="445" y="463"/>
      <point x="417" y="449"/>
      <point x="404" y="420" type="curve"/>
      <point x="401" y="420" type="line"/>
      <point x="389" y="450"/>
      <point x="361" y="463"/>
      <point x="326" y="463" type="curve" smooth="yes"/>
      <point x="256" y="463"/>
      <point x="225" y="410"/>
      <point x="225" y="329" type="curve" smooth="yes"/>
      <point x="225" y="237"/>
      <point x="271" y="187"/>
      <point x="343" y="187" type="curve" smooth="yes"/>
      <point x="368" y="187"/>
      <point x="388" y="194"/>
      <point x="405" y="205" type="curve"/>
      <point x="383" y="279" type="line"/>
      <point x="374" y="274"/>
      <point x="364" y="272"/>
      <point x="358" y="272" type="curve" smooth="yes"/>
      <point x="335" y="272"/>
      <point x="329" y="291"/>
      <point x="329" y="323" type="curve" smooth="yes"/>
      <point x="329" y="355"/>
      <point x="335" y="373"/>
      <point x="351" y="373" type="curve" smooth="yes"/>
      <point x="368" y="373"/>
      <point x="373" y="358"/>
      <point x="375" y="333" type="curve"/>
      <point x="413" y="333" type="line"/>
      <point x="415" y="358"/>
      <point x="420" y="373"/>
      <point x="437" y="373" type="curve" smooth="yes"/>
      <point x="451" y="373"/>
      <point x="458" y="361"/>
      <point x="458" y="337" type="curve" smooth="yes"/>
      <point x="458" y="230" type="line" smooth="yes"/>
      <point x="458" y="148"/>
      <point x="428" y="99"/>
      <point x="330" y="99" type="curve" smooth="yes"/>
      <point x="232" y="99"/>
      <point x="194" y="149"/>
      <point x="194" y="227" type="curve" smooth="yes"/>
      <point x="194" y="584" type="line"/>
      <point x="53" y="584" type="line"/>
      <point x="53" y="215" type="line" smooth="yes"/>
      <point x="53" y="73"/>
      <point x="134" y="-13"/>
    </contour>
  </outline>
</glyph>
<glyph name="three-thai" format="2">
  <advance width="566"/>
  <unicode hex="0E53"/>
  <outline>
    <contour>
      <point x="208" y="-10" type="curve" smooth="yes"/>
      <point x="241" y="-10"/>
      <point x="275" y="-4"/>
      <point x="295" y="3" type="curve"/>
      <point x="278" y="101" type="line"/>
      <point x="270" y="97"/>
      <point x="260" y="96"/>
      <point x="253" y="96" type="curve" smooth="yes"/>
      <point x="208" y="96"/>
      <point x="191" y="142"/>
      <point x="191" y="236" type="curve" smooth="yes"/>
      <point x="191" y="312"/>
      <point x="203" y="349"/>
      <point x="230" y="349" type="curve" smooth="yes"/>
      <point x="242" y="349"/>
      <point x="255" y="341"/>
      <point x="258" y="304" type="curve"/>
      <point x="310" y="304" type="line"/>
      <point x="313" y="340"/>
      <point x="323" y="349"/>
      <point x="340" y="349" type="curve" smooth="yes"/>
      <point x="354" y="349"/>
      <point x="368" y="342"/>
      <point x="368" y="306" type="curve" smooth="yes"/>
      <point x="368" y="0" type="line"/>
      <point x="510" y="0" type="line"/>
      <point x="510" y="329" type="line" smooth="yes"/>
      <point x="510" y="419"/>
      <point x="469" y="465"/>
      <point x="389" y="465" type="curve" smooth="yes"/>
      <point x="348" y="465"/>
      <point x="301" y="453"/>
      <point x="287" y="411" type="curve"/>
      <point x="284" y="411" type="line"/>
      <point x="260" y="454"/>
      <point x="227" y="465"/>
      <point x="190" y="465" type="curve" smooth="yes"/>
      <point x="95" y="465"/>
      <point x="47" y="395"/>
      <point x="47" y="234" type="curve" smooth="yes"/>
      <point x="47" y="88"/>
      <point x="90" y="-10"/>
    </contour>
  </outline>
</glyph>
<glyph name="four-thai" format="2">
  <advance width="537"/>
  <unicode hex="0E54"/>
  <outline>
    <contour>
      <point x="256" y="0" type="curve" smooth="yes"/>
      <point x="488" y="0" type="line"/>
      <point x="488" y="105" type="line"/>
      <point x="455" y="105" type="line" smooth="yes"/>
      <point x="418" y="105"/>
      <point x="399" y="123"/>
      <point x="399" y="158" type="curve" smooth="yes"/>
      <point x="399" y="186"/>
      <point x="411" y="203"/>
      <point x="434" y="203" type="curve" smooth="yes"/>
      <point x="439" y="203"/>
      <point x="448" y="203"/>
      <point x="454" y="200" type="curve"/>
      <point x="473" y="278" type="line"/>
      <point x="455" y="288"/>
      <point x="430" y="293"/>
      <point x="400" y="293" type="curve" smooth="yes"/>
      <point x="322" y="293"/>
      <point x="282" y="255"/>
      <point x="282" y="182" type="curve" smooth="yes"/>
      <point x="282" y="143"/>
      <point x="293" y="108"/>
      <point x="313" y="92" type="curve"/>
      <point x="326" y="105" type="line"/>
      <point x="274" y="105" type="line" smooth="yes"/>
      <point x="217" y="105"/>
      <point x="191" y="139"/>
      <point x="191" y="219" type="curve" smooth="yes"/>
      <point x="191" y="304"/>
      <point x="220" y="355"/>
      <point x="302" y="355" type="curve" smooth="yes"/>
      <point x="334" y="355" type="line" smooth="yes"/>
      <point x="433" y="355"/>
      <point x="479" y="406"/>
      <point x="479" y="496" type="curve" smooth="yes"/>
      <point x="479" y="584" type="line"/>
      <point x="348" y="584" type="line"/>
      <point x="348" y="528" type="line" smooth="yes"/>
      <point x="348" y="479"/>
      <point x="332" y="460"/>
      <point x="274" y="460" type="curve" smooth="yes"/>
      <point x="237" y="460" type="line" smooth="yes"/>
      <point x="97" y="460"/>
      <point x="47" y="353"/>
      <point x="47" y="223" type="curve" smooth="yes"/>
      <point x="47" y="72"/>
      <point x="114" y="0"/>
    </contour>
  </outline>
</glyph>
<glyph name="five-thai" format="2">
  <advance width="554"/>
  <unicode hex="0E55"/>
  <outline>
    <contour>
      <point x="263" y="0" type="curve" smooth="yes"/>
      <point x="494" y="0" type="line"/>
      <point x="494" y="105" type="line"/>
      <point x="461" y="105" type="line" smooth="yes"/>
      <point x="424" y="105"/>
      <point x="405" y="123"/>
      <point x="405" y="158" type="curve" smooth="yes"/>
      <point x="405" y="186"/>
      <point x="418" y="203"/>
      <point x="440" y="203" type="curve" smooth="yes"/>
      <point x="445" y="203"/>
      <point x="454" y="202"/>
      <point x="460" y="200" type="curve"/>
      <point x="480" y="278" type="line"/>
      <point x="462" y="287"/>
      <point x="436" y="293"/>
      <point x="406" y="293" type="curve" smooth="yes"/>
      <point x="328" y="293"/>
      <point x="288" y="254"/>
      <point x="288" y="182" type="curve" smooth="yes"/>
      <point x="288" y="143"/>
      <point x="299" y="109"/>
      <point x="320" y="89" type="curve"/>
      <point x="333" y="105" type="line"/>
      <point x="280" y="105" type="line" smooth="yes"/>
      <point x="217" y="105"/>
      <point x="191" y="139"/>
      <point x="191" y="219" type="curve" smooth="yes"/>
      <point x="191" y="304"/>
      <point x="220" y="355"/>
      <point x="309" y="355" type="curve" smooth="yes"/>
      <point x="347" y="355" type="line" smooth="yes"/>
      <point x="446" y="355"/>
      <point x="498" y="406"/>
      <point x="498" y="496" type="curve" smooth="yes"/>
      <point x="498" y="584" type="line"/>
      <point x="385" y="584" type="line"/>
      <point x="385" y="547" type="line" smooth="yes"/>
      <point x="385" y="472"/>
      <point x="374" y="453"/>
      <point x="292" y="453" type="curve"/>
      <point x="295" y="436" type="line"/>
      <point x="319" y="442"/>
      <point x="345" y="467"/>
      <point x="345" y="510" type="curve" smooth="yes"/>
      <point x="345" y="561"/>
      <point x="308" y="598"/>
      <point x="240" y="598" type="curve" smooth="yes"/>
      <point x="174" y="598"/>
      <point x="134" y="563"/>
      <point x="134" y="511" type="curve" smooth="yes"/>
      <point x="134" y="459"/>
      <point x="174" y="431"/>
      <point x="217" y="426" type="curve"/>
      <point x="212" y="451" type="line"/>
      <point x="99" y="446"/>
      <point x="47" y="358"/>
      <point x="47" y="225" type="curve" smooth="yes"/>
      <point x="47" y="72"/>
      <point x="113" y="0"/>
    </contour>
    <contour>
      <point x="241" y="468" type="curve" smooth="yes"/>
      <point x="218" y="468"/>
      <point x="206" y="484"/>
      <point x="206" y="504" type="curve" smooth="yes"/>
      <point x="206" y="523"/>
      <point x="218" y="539"/>
      <point x="241" y="539" type="curve" smooth="yes"/>
      <point x="263" y="539"/>
      <point x="277" y="523"/>
      <point x="277" y="504" type="curve" smooth="yes"/>
      <point x="277" y="484"/>
      <point x="263" y="468"/>
    </contour>
  </outline>
</glyph>
<glyph name="six-thai" format="2">
  <advance width="526"/>
  <unicode hex="0E56"/>
  <outline>
    <contour>
      <point x="258" y="-13" type="curve" smooth="yes"/>
      <point x="411" y="-13"/>
      <point x="479" y="77"/>
      <point x="479" y="230" type="curve" smooth="yes"/>
      <point x="479" y="373"/>
      <point x="420" y="465"/>
      <point x="288" y="465" type="curve" smooth="yes"/>
      <point x="223" y="465"/>
      <point x="177" y="442"/>
      <point x="158" y="392" type="curve"/>
      <point x="184" y="392" type="line"/>
      <point x="147" y="584" type="line"/>
      <point x="24" y="584" type="line"/>
      <point x="83" y="295" type="line"/>
      <point x="188" y="295" type="line"/>
      <point x="189" y="335"/>
      <point x="218" y="356"/>
      <point x="256" y="356" type="curve" smooth="yes"/>
      <point x="307" y="356"/>
      <point x="335" y="319"/>
      <point x="335" y="228" type="curve" smooth="yes"/>
      <point x="335" y="142"/>
      <point x="310" y="96"/>
      <point x="250" y="96" type="curve" smooth="yes"/>
      <point x="211" y="96"/>
      <point x="186" y="117"/>
      <point x="161" y="153" type="curve"/>
      <point x="65" y="81" type="line"/>
      <point x="106" y="13"/>
      <point x="174" y="-13"/>
    </contour>
  </outline>
</glyph>
<glyph name="seven-thai" format="2">
  <advance width="750"/>
  <unicode hex="0E57"/>
  <outline>
    <contour>
      <point x="212" y="-10" type="curve" smooth="yes"/>
      <point x="242" y="-10"/>
      <point x="275" y="-4"/>
      <point x="295" y="3" type="curve"/>
      <point x="278" y="101" type="line"/>
      <point x="270" y="97"/>
      <point x="260" y="96"/>
      <point x="252" y="96" type="curve" smooth="yes"/>
      <point x="207" y="96"/>
      <point x="191" y="141"/>
      <point x="191" y="239" type="curve" smooth="yes"/>
      <point x="191" y="313"/>
      <point x="200" y="349"/>
      <point x="228" y="349" type="curve" smooth="yes"/>
      <point x="242" y="349"/>
      <point x="251" y="340"/>
      <point x="254" y="304" type="curve"/>
      <point x="300" y="304" type="line"/>
      <point x="303" y="338"/>
      <point x="310" y="349"/>
      <point x="329" y="349" type="curve" smooth="yes"/>
      <point x="344" y="349"/>
      <point x="354" y="340"/>
      <point x="354" y="308" type="curve" smooth="yes"/>
      <point x="354" y="0" type="line"/>
      <point x="475" y="0" type="line" smooth="yes"/>
      <point x="575" y="0"/>
      <point x="695" y="42"/>
      <point x="695" y="215" type="curve" smooth="yes"/>
      <point x="695" y="584" type="line"/>
      <point x="557" y="584" type="line"/>
      <point x="557" y="203" type="line" smooth="yes"/>
      <point x="557" y="121"/>
      <point x="531" y="102"/>
      <point x="486" y="102" type="curve"/>
      <point x="486" y="355" type="line" smooth="yes"/>
      <point x="486" y="430"/>
      <point x="447" y="465"/>
      <point x="379" y="465" type="curve" smooth="yes"/>
      <point x="342" y="465"/>
      <point x="298" y="455"/>
      <point x="280" y="411" type="curve"/>
      <point x="277" y="411" type="line"/>
      <point x="256" y="454"/>
      <point x="225" y="465"/>
      <point x="188" y="465" type="curve" smooth="yes"/>
      <point x="96" y="465"/>
      <point x="47" y="403"/>
      <point x="47" y="238" type="curve" smooth="yes"/>
      <point x="47" y="84"/>
      <point x="90" y="-10"/>
    </contour>
  </outline>
</glyph>
<glyph name="angkhankhu-thai" format="2">
  <advance width="827"/>
  <unicode hex="0E5A"/>
  <outline>
    <contour>
      <point x="317" y="0" type="line"/>
      <point x="467" y="0" type="line"/>
      <point x="467" y="517" type="line"/>
      <point x="317" y="517" type="line"/>
      <point x="317" y="389" type="line" smooth="yes"/>
      <point x="317" y="337"/>
      <point x="291" y="310"/>
      <point x="235" y="310" type="curve" smooth="yes"/>
      <point x="181" y="310"/>
      <point x="154" y="334"/>
      <point x="154" y="372" type="curve" smooth="yes"/>
      <point x="154" y="409"/>
      <point x="180" y="426"/>
      <point x="213" y="426" type="curve" smooth="yes"/>
      <point x="219" y="426"/>
      <point x="228" y="425"/>
      <point x="241" y="422" type="curve"/>
      <point x="252" y="515" type="line"/>
      <point x="224" y="524"/>
      <point x="198" y="526"/>
      <point x="179" y="526" type="curve" smooth="yes"/>
      <point x="75" y="526"/>
      <point x="13" y="467"/>
      <point x="13" y="368" type="curve" smooth="yes"/>
      <point x="13" y="252"/>
      <point x="98" y="197"/>
      <point x="200" y="197" type="curve" smooth="yes"/>
      <point x="286" y="197"/>
      <point x="350" y="237"/>
      <point x="353" y="310" type="curve"/>
      <point x="317" y="307" type="line"/>
    </contour>
    <contour>
      <point x="601" y="0" type="line"/>
      <point x="751" y="0" type="line"/>
      <point x="751" y="517" type="line"/>
      <point x="601" y="517" type="line"/>
      <point x="601" y="401" type="line" smooth="yes"/>
      <point x="601" y="342"/>
      <point x="564" y="307"/>
      <point x="509" y="307" type="curve" smooth="yes"/>
      <point x="481" y="307"/>
      <point x="459" y="316"/>
      <point x="436" y="334" type="curve"/>
      <point x="399" y="246" type="line"/>
      <point x="430" y="216"/>
      <point x="467" y="202"/>
      <point x="505" y="202" type="curve" smooth="yes"/>
      <point x="570" y="202"/>
      <point x="629" y="242"/>
      <point x="631" y="322" type="curve"/>
      <point x="601" y="320" type="line"/>
    </contour>
  </outline>
</glyph>
<glyph name="doChada-thai.short" format="2">
  <advance width="637"/>
  <anchor x="567" y="-71" name="bottom"/>
  <anchor x="541" y="507" name="top"/>
  <outline>
    <contour>
      <point x="91" y="-120" type="line"/>
      <point x="232" y="-120" type="line"/>
      <point x="232" y="-116" type="line" smooth="yes"/>
      <point x="232" y="-98"/>
      <point x="250" y="-79"/>
      <point x="300" y="-79" type="curve" smooth="yes"/>
      <point x="344" y="-79"/>
      <point x="408" y="-94"/>
      <point x="437" y="-120" type="curve"/>
      <point x="567" y="-120" type="line"/>
      <point x="567" y="329" type="line" smooth="yes"/>
      <point x="567" y="463"/>
      <point x="471" y="531"/>
      <point x="317" y="531" type="curve" smooth="yes"/>
      <point x="152" y="531"/>
      <point x="67" y="453"/>
      <point x="67" y="358" type="curve" smooth="yes"/>
      <point x="67" y="335" type="line"/>
      <point x="176" y="298" type="line"/>
      <point x="175" y="294" type="line"/>
      <point x="120" y="281"/>
      <point x="94" y="247"/>
      <point x="94" y="188" type="curve" smooth="yes"/>
      <point x="94" y="128" type="line" smooth="yes"/>
      <point x="94" y="106"/>
      <point x="84" y="95"/>
      <point x="61" y="95" type="curve" smooth="yes"/>
      <point x="54" y="95"/>
      <point x="45" y="96"/>
      <point x="36" y="99" type="curve"/>
      <point x="22" y="18" type="line"/>
      <point x="46" y="6"/>
      <point x="76" y="-3"/>
      <point x="115" y="-3" type="curve" smooth="yes"/>
      <point x="187" y="-3"/>
      <point x="240" y="28"/>
      <point x="240" y="110" type="curve" smooth="yes"/>
      <point x="240" y="182" type="line" smooth="yes"/>
      <point x="240" y="231"/>
      <point x="259" y="252"/>
      <point x="297" y="253" type="curve"/>
      <point x="308" y="316" type="line"/>
      <point x="221" y="351" type="line"/>
      <point x="223" y="384"/>
      <point x="253" y="412"/>
      <point x="315" y="412" type="curve" smooth="yes"/>
      <point x="380" y="412"/>
      <point x="417" y="381"/>
      <point x="417" y="320" type="curve" smooth="yes"/>
      <point x="417" y="-72" type="line"/>
      <point x="447" y="-65" type="line"/>
      <point x="416" y="-34"/>
      <point x="351" y="-3"/>
      <point x="257" y="-3" type="curve" smooth="yes"/>
      <point x="161" y="-3"/>
      <point x="91" y="-36"/>
      <point x="91" y="-103" type="curve" smooth="yes"/>
    </contour>
  </outline>
</glyph>
<glyph name="loChula-thai.short" format="2">
  <advance width="708"/>
  <anchor x="599" y="0" name="bottom"/>
  <anchor x="621" y="507" name="top"/>
  <outline>
    <contour>
      <point x="96" y="0" type="line"/>
      <point x="258" y="0" type="line"/>
      <point x="311" y="135" type="line" smooth="yes"/>
      <point x="326" y="173"/>
      <point x="338" y="207"/>
      <point x="348" y="255" type="curve"/>
      <point x="352" y="255" type="line"/>
      <point x="363" y="207"/>
      <point x="375" y="173"/>
      <point x="389" y="134" type="curve" smooth="yes"/>
      <point x="439" y="0" type="line"/>
      <point x="600" y="0" type="line"/>
      <point x="654" y="322" type="line" smooth="yes"/>
      <point x="662" y="370"/>
      <point x="649" y="417"/>
      <point x="592" y="435" type="curve"/>
      <point x="592" y="439" type="line"/>
      <point x="666" y="449"/>
      <point x="695" y="494"/>
      <point x="695" y="553" type="curve"/>
      <point x="551" y="553" type="line"/>
      <point x="547" y="515"/>
      <point x="538" y="496"/>
      <point x="486" y="496" type="curve" smooth="yes"/>
      <point x="404" y="496" type="line"/>
      <point x="404" y="404" type="line"/>
      <point x="459" y="404" type="line" smooth="yes"/>
      <point x="511" y="404"/>
      <point x="525" y="380"/>
      <point x="517" y="331" type="curve" smooth="yes"/>
      <point x="507" y="265" type="line" smooth="yes"/>
      <point x="500" y="220"/>
      <point x="494" y="179"/>
      <point x="490" y="122" type="curve"/>
      <point x="486" y="122" type="line"/>
      <point x="469" y="177"/>
      <point x="452" y="228"/>
      <point x="435" y="269" type="curve" smooth="yes"/>
      <point x="394" y="367" type="line"/>
      <point x="304" y="367" type="line"/>
      <point x="265" y="268" type="line" smooth="yes"/>
      <point x="243" y="213"/>
      <point x="227" y="168"/>
      <point x="215" y="125" type="curve"/>
      <point x="211" y="125" type="line"/>
      <point x="211" y="193"/>
      <point x="211" y="252"/>
      <point x="206" y="302" type="curve" smooth="yes"/>
      <point x="185" y="519" type="line"/>
      <point x="31" y="519" type="line"/>
    </contour>
  </outline>
</glyph>
<glyph name="lu-thai.short" format="2">
  <advance width="637"/>
  <anchor x="567" y="-71" name="bottom"/>
  <anchor x="542" y="509" name="top"/>
  <outline>
    <contour>
      <point x="417" y="-120" type="line"/>
      <point x="567" y="-120" type="line"/>
      <point x="567" y="95" type="line"/>
      <point x="417" y="95" type="line"/>
    </contour>
    <component base="phoSamphao-thai"/>
  </outline>
</glyph>
<glyph name="lu_lakkhangyao-thai" format="2">
  <advance width="976"/>
  <outline>
    <contour>
      <point x="417" y="-202" type="line"/>
      <point x="567" y="-202" type="line"/>
      <point x="567" y="313" type="line" smooth="yes"/>
      <point x="567" y="379"/>
      <point x="602" y="410"/>
      <point x="661" y="410" type="curve" smooth="yes"/>
      <point x="720" y="410"/>
      <point x="756" y="380"/>
      <point x="756" y="315" type="curve" smooth="yes"/>
      <point x="756" y="-202" type="line"/>
      <point x="906" y="-202" type="line"/>
      <point x="906" y="334" type="line" smooth="yes"/>
      <point x="906" y="452"/>
      <point x="836" y="530"/>
      <point x="690" y="530" type="curve" smooth="yes"/>
      <point x="599" y="530"/>
      <point x="534" y="499"/>
      <point x="503" y="446" type="curve"/>
      <point x="500" y="446" type="line"/>
      <point x="471" y="500"/>
      <point x="405" y="530"/>
      <point x="313" y="530" type="curve" smooth="yes"/>
      <point x="153" y="530"/>
      <point x="67" y="452"/>
      <point x="67" y="357" type="curve" smooth="yes"/>
      <point x="67" y="333" type="line"/>
      <point x="176" y="297" type="line"/>
      <point x="175" y="293" type="line"/>
      <point x="120" y="280"/>
      <point x="94" y="246"/>
      <point x="94" y="188" type="curve" smooth="yes"/>
      <point x="94" y="121" type="line" smooth="yes"/>
      <point x="94" y="99"/>
      <point x="84" y="89"/>
      <point x="62" y="89" type="curve" smooth="yes"/>
      <point x="54" y="89"/>
      <point x="45" y="90"/>
      <point x="36" y="93" type="curve"/>
      <point x="22" y="11" type="line"/>
      <point x="46" y="-1"/>
      <point x="76" y="-10"/>
      <point x="114" y="-10" type="curve" smooth="yes"/>
      <point x="187" y="-10"/>
      <point x="240" y="22"/>
      <point x="240" y="104" type="curve" smooth="yes"/>
      <point x="240" y="181" type="line" smooth="yes"/>
      <point x="240" y="230"/>
      <point x="259" y="251"/>
      <point x="297" y="252" type="curve"/>
      <point x="308" y="315" type="line"/>
      <point x="221" y="350" type="line"/>
      <point x="223" y="383"/>
      <point x="253" y="410"/>
      <point x="315" y="410" type="curve" smooth="yes"/>
      <point x="380" y="410"/>
      <point x="417" y="379"/>
      <point x="417" y="317" type="curve" smooth="yes"/>
    </contour>
  </outline>
</glyph>
<glyph name="macronbelowcomb.alt" format="2">
  <anchor x="-53" y="0" name="_bottom"/>
  <outline>
    <contour>
      <point x="-120" y="-76" type="line"/>
      <point x="-736" y="-76" type="line" smooth="yes"/>
      <point x="-736" y="-179" type="line"/>
      <point x="-120" y="-179" type="line"/>
    </contour>
  </outline>
</glyph>
<glyph name="maiChattawa-thai.narrow" format="2">
  <anchor x="-268" y="506" name="_top"/>
  <anchor x="-334" y="814" name="top"/>
  <outline>
    <contour>
      <point x="-458" y="594" type="line"/>
      <point x="-338" y="594" type="line"/>
      <point x="-338" y="821" type="line"/>
      <point x="-458" y="821" type="line"/>
    </contour>
    <contour>
      <point x="-528" y="664" type="line"/>
      <point x="-269" y="664" type="line"/>
      <point x="-269" y="751" type="line"/>
      <point x="-528" y="751" type="line"/>
    </contour>
  </outline>
</glyph>
<glyph name="maiChattawa-thai.small" format="2">
  <anchor x="-79" y="742" name="_top"/>
  <anchor x="-79" y="1008" name="top"/>
  <outline>
    <contour>
      <point x="-206" y="842" type="line"/>
      <point x="-86" y="842" type="line"/>
      <point x="-86" y="1028" type="line"/>
      <point x="-206" y="1028" type="line"/>
    </contour>
    <contour>
      <point x="-270" y="893" type="line"/>
      <point x="-21" y="893" type="line"/>
      <point x="-21" y="977" type="line"/>
      <point x="-270" y="977" type="line"/>
    </contour>
  </outline>
</glyph>
<glyph name="maiEk-thai.narrow" format="2">
  <anchor x="-267" y="506" name="_top"/>
  <anchor x="-279" y="815" name="top"/>
  <outline>
    <contour>
      <point x="-416" y="594" type="line"/>
      <point x="-279" y="594" type="line"/>
      <point x="-279" y="821" type="line"/>
      <point x="-416" y="821" type="line"/>
    </contour>
  </outline>
</glyph>
<glyph name="maiEk-thai.small" format="2">
  <anchor x="-79" y="742" name="_top"/>
  <anchor x="-79" y="1009" name="top"/>
  <outline>
    <contour>
      <point x="-208" y="842" type="line"/>
      <point x="-78" y="842" type="line"/>
      <point x="-78" y="1028" type="line"/>
      <point x="-208" y="1028" type="line"/>
    </contour>
  </outline>
</glyph>
<glyph name="maiHanaKat-thai.narrow" format="2">
  <anchor x="-267" y="506" name="_top"/>
  <anchor x="-287" y="710" name="top"/>
  <outline>
    <contour>
      <point x="-430" y="594" type="curve" smooth="yes"/>
      <point x="-267" y="594" type="line"/>
      <point x="-267" y="691" type="line"/>
      <point x="-393" y="691" type="line" smooth="yes"/>
      <point x="-420" y="691"/>
      <point x="-430" y="701"/>
      <point x="-430" y="720" type="curve" smooth="yes"/>
      <point x="-430" y="728"/>
      <point x="-429" y="739"/>
      <point x="-426" y="748" type="curve"/>
      <point x="-535" y="762" type="line"/>
      <point x="-547" y="739"/>
      <point x="-554" y="712"/>
      <point x="-554" y="689" type="curve" smooth="yes"/>
      <point x="-554" y="641"/>
      <point x="-524" y="594"/>
    </contour>
  </outline>
</glyph>
<glyph name="maiTho-thai.narrow" format="2">
  <anchor x="-267" y="506" name="_top"/>
  <anchor x="-323" y="815" name="top"/>
  <outline>
    <contour>
      <point x="-533" y="593" type="line"/>
      <point x="-267" y="593" type="line"/>
      <point x="-267" y="690" type="line"/>
      <point x="-397" y="690" type="line"/>
      <point x="-392" y="667" type="line"/>
      <point x="-356" y="682"/>
      <point x="-345" y="710"/>
      <point x="-345" y="735" type="curve" smooth="yes"/>
      <point x="-345" y="791"/>
      <point x="-381" y="819"/>
      <point x="-441" y="819" type="curve" smooth="yes"/>
      <point x="-468" y="819"/>
      <point x="-513" y="813"/>
      <point x="-540" y="791" type="curve"/>
      <point x="-521" y="724" type="line"/>
      <point x="-512" y="728"/>
      <point x="-499" y="733"/>
      <point x="-489" y="733" type="curve" smooth="yes"/>
      <point x="-472" y="733"/>
      <point x="-461" y="723"/>
      <point x="-461" y="703" type="curve" smooth="yes"/>
      <point x="-461" y="666"/>
      <point x="-507" y="651"/>
      <point x="-533" y="643" type="curve"/>
    </contour>
  </outline>
</glyph>
<glyph name="maiTho-thai.small" format="2">
  <anchor x="-79" y="742" name="_top"/>
  <anchor x="-79" y="1008" name="top"/>
  <outline>
    <contour>
      <point x="-267" y="842" type="line"/>
      <point x="8" y="842" type="line"/>
      <point x="8" y="926" type="line"/>
      <point x="-141" y="926" type="line"/>
      <point x="-134" y="905" type="line"/>
      <point x="-107" y="918"/>
      <point x="-101" y="942"/>
      <point x="-101" y="962" type="curve" smooth="yes"/>
      <point x="-101" y="1008"/>
      <point x="-135" y="1028"/>
      <point x="-186" y="1028" type="curve" smooth="yes"/>
      <point x="-211" y="1028"/>
      <point x="-252" y="1023"/>
      <point x="-276" y="1005" type="curve"/>
      <point x="-258" y="947" type="line"/>
      <point x="-251" y="953"/>
      <point x="-239" y="957"/>
      <point x="-229" y="957" type="curve" smooth="yes"/>
      <point x="-216" y="957"/>
      <point x="-206" y="948"/>
      <point x="-206" y="933" type="curve" smooth="yes"/>
      <point x="-206" y="902"/>
      <point x="-247" y="889"/>
      <point x="-267" y="883" type="curve"/>
    </contour>
  </outline>
</glyph>
<glyph name="maiTri-thai.narrow" format="2">
  <anchor x="-268" y="506" name="_top"/>
  <anchor x="-372" y="815" name="top"/>
  <outline>
    <contour>
      <point x="-506" y="589" type="curve" smooth="yes"/>
      <point x="-487" y="589"/>
      <point x="-465" y="593"/>
      <point x="-455" y="600" type="curve"/>
      <point x="-462" y="664" type="line"/>
      <point x="-470" y="661"/>
      <point x="-477" y="661"/>
      <point x="-482" y="661" type="curve" smooth="yes"/>
      <point x="-503" y="661"/>
      <point x="-514" y="679"/>
      <point x="-514" y="699" type="curve" smooth="yes"/>
      <point x="-514" y="721"/>
      <point x="-501" y="735"/>
      <point x="-487" y="737" type="curve"/>
      <point x="-457" y="715" type="line"/>
      <point x="-453" y="715" type="line"/>
      <point x="-422" y="737" type="line"/>
      <point x="-409" y="735"/>
      <point x="-395" y="723"/>
      <point x="-395" y="698" type="curve" smooth="yes"/>
      <point x="-395" y="675"/>
      <point x="-407" y="664"/>
      <point x="-424" y="658" type="curve"/>
      <point x="-424" y="594" type="line"/>
      <point x="-260" y="594" type="line"/>
      <point x="-260" y="681" type="line"/>
      <point x="-327" y="681" type="line"/>
      <point x="-323" y="662" type="line"/>
      <point x="-310" y="676"/>
      <point x="-301" y="697"/>
      <point x="-301" y="727" type="curve" smooth="yes"/>
      <point x="-301" y="777"/>
      <point x="-330" y="814"/>
      <point x="-408" y="818" type="curve"/>
      <point x="-456" y="780" type="line"/>
      <point x="-508" y="818" type="line"/>
      <point x="-569" y="814"/>
      <point x="-610" y="773"/>
      <point x="-610" y="701" type="curve" smooth="yes"/>
      <point x="-610" y="632"/>
      <point x="-572" y="589"/>
    </contour>
  </outline>
</glyph>
<glyph name="maiTri-thai.small" format="2">
  <anchor x="-79" y="742" name="_top"/>
  <anchor x="-79" y="1008" name="top"/>
  <outline>
    <contour>
      <point x="-236" y="838" type="curve" smooth="yes"/>
      <point x="-216" y="838"/>
      <point x="-195" y="842"/>
      <point x="-186" y="848" type="curve"/>
      <point x="-192" y="903" type="line"/>
      <point x="-197" y="901"/>
      <point x="-204" y="900"/>
      <point x="-209" y="900" type="curve" smooth="yes"/>
      <point x="-227" y="900"/>
      <point x="-238" y="911"/>
      <point x="-238" y="929" type="curve" smooth="yes"/>
      <point x="-238" y="947"/>
      <point x="-228" y="960"/>
      <point x="-215" y="960" type="curve"/>
      <point x="-178" y="936" type="line"/>
      <point x="-173" y="936" type="line"/>
      <point x="-137" y="960" type="line"/>
      <point x="-124" y="958"/>
      <point x="-114" y="946"/>
      <point x="-114" y="930" type="curve" smooth="yes"/>
      <point x="-114" y="912"/>
      <point x="-127" y="900"/>
      <point x="-141" y="897" type="curve"/>
      <point x="-141" y="842" type="line"/>
      <point x="40" y="842" type="line"/>
      <point x="40" y="918" type="line"/>
      <point x="-55" y="918" type="line"/>
      <point x="-51" y="902" type="line"/>
      <point x="-37" y="909"/>
      <point x="-25" y="928"/>
      <point x="-25" y="956" type="curve" smooth="yes"/>
      <point x="-25" y="1006"/>
      <point x="-70" y="1028"/>
      <point x="-132" y="1028" type="curve"/>
      <point x="-175" y="992" type="line"/>
      <point x="-221" y="1028" type="line"/>
      <point x="-297" y="1028"/>
      <point x="-332" y="984"/>
      <point x="-332" y="931" type="curve" smooth="yes"/>
      <point x="-332" y="881"/>
      <point x="-304" y="838"/>
    </contour>
  </outline>
</glyph>
<glyph name="maitaikhu-thai.narrow" format="2">
  <anchor x="-268" y="506" name="_top"/>
  <anchor x="-332" y="794" name="top"/>
  <outline>
    <contour>
      <point x="-358" y="585" type="curve" smooth="yes"/>
      <point x="-303" y="585"/>
      <point x="-267" y="618"/>
      <point x="-267" y="690" type="curve" smooth="yes"/>
      <point x="-267" y="710" type="line"/>
      <point x="-357" y="710" type="line"/>
      <point x="-357" y="695" type="line" smooth="yes"/>
      <point x="-357" y="674"/>
      <point x="-368" y="660"/>
      <point x="-385" y="660" type="curve" smooth="yes"/>
      <point x="-406" y="660"/>
      <point x="-418" y="678"/>
      <point x="-419" y="706" type="curve"/>
      <point x="-440" y="706" type="line"/>
      <point x="-477" y="663" type="line"/>
      <point x="-498" y="663"/>
      <point x="-508" y="681"/>
      <point x="-508" y="705" type="curve" smooth="yes"/>
      <point x="-508" y="738"/>
      <point x="-490" y="754"/>
      <point x="-467" y="754" type="curve" smooth="yes"/>
      <point x="-268" y="754" type="line"/>
      <point x="-268" y="827" type="line"/>
      <point x="-490" y="827" type="line" smooth="yes"/>
      <point x="-548" y="827"/>
      <point x="-601" y="788"/>
      <point x="-601" y="707" type="curve" smooth="yes"/>
      <point x="-601" y="630"/>
      <point x="-552" y="588"/>
      <point x="-475" y="588" type="curve"/>
      <point x="-436" y="630" type="line"/>
      <point x="-420" y="601"/>
      <point x="-394" y="585"/>
    </contour>
  </outline>
</glyph>
<glyph name="phinthu-thai.small" format="2">
  <guideline x="-209" y="-71" angle="0"/>
  <anchor x="-70" y="-71" name="_bottom"/>
  <anchor x="-70" y="-216" name="bottom"/>
  <outline>
    <contour>
      <point x="-143" y="-259" type="curve" smooth="yes"/>
      <point x="-93" y="-259"/>
      <point x="-64" y="-234"/>
      <point x="-64" y="-197" type="curve" smooth="yes"/>
      <point x="-64" y="-161"/>
      <point x="-93" y="-136"/>
      <point x="-143" y="-136" type="curve" smooth="yes"/>
      <point x="-194" y="-136"/>
      <point x="-223" y="-161"/>
      <point x="-223" y="-197" type="curve" smooth="yes"/>
      <point x="-223" y="-234"/>
      <point x="-194" y="-259"/>
    </contour>
  </outline>
</glyph>
<glyph name="ru-thai.short" format="2">
  <advance width="625"/>
  <anchor x="555" y="-71" name="bottom"/>
  <anchor x="542" y="507" name="top"/>
  <outline>
    <contour>
      <point x="405" y="-120" type="line"/>
      <point x="555" y="-120" type="line"/>
      <point x="555" y="95" type="line"/>
      <point x="405" y="95" type="line"/>
    </contour>
    <component base="thoThung-thai"/>
  </outline>
</glyph>
<glyph name="ru_lakkhangyao-thai" format="2">
  <advance width="964"/>
  <outline>
    <contour>
      <point x="405" y="-202" type="line"/>
      <point x="555" y="-202" type="line"/>
      <point x="555" y="313" type="line" smooth="yes"/>
      <point x="555" y="379"/>
      <point x="590" y="410"/>
      <point x="650" y="410" type="curve" smooth="yes"/>
      <point x="709" y="410"/>
      <point x="744" y="380"/>
      <point x="744" y="315" type="curve" smooth="yes"/>
      <point x="744" y="-202" type="line"/>
      <point x="894" y="-202" type="line"/>
      <point x="894" y="334" type="line" smooth="yes"/>
      <point x="894" y="452"/>
      <point x="824" y="530"/>
      <point x="679" y="530" type="curve" smooth="yes"/>
      <point x="587" y="530"/>
      <point x="522" y="499"/>
      <point x="492" y="446" type="curve"/>
      <point x="488" y="446" type="line"/>
      <point x="455" y="500"/>
      <point x="392" y="530"/>
      <point x="296" y="530" type="curve" smooth="yes"/>
      <point x="143" y="530"/>
      <point x="55" y="452"/>
      <point x="55" y="357" type="curve" smooth="yes"/>
      <point x="55" y="333" type="line"/>
      <point x="164" y="297" type="line"/>
      <point x="163" y="293" type="line"/>
      <point x="101" y="275"/>
      <point x="65" y="240"/>
      <point x="65" y="167" type="curve" smooth="yes"/>
      <point x="65" y="115" type="line" smooth="yes"/>
      <point x="65" y="32"/>
      <point x="120" y="-10"/>
      <point x="206" y="-10" type="curve" smooth="yes"/>
      <point x="242" y="-10"/>
      <point x="275" y="-2"/>
      <point x="300" y="10" type="curve"/>
      <point x="286" y="98" type="line"/>
      <point x="276" y="94"/>
      <point x="263" y="92"/>
      <point x="251" y="92" type="curve" smooth="yes"/>
      <point x="223" y="92"/>
      <point x="211" y="103"/>
      <point x="211" y="130" type="curve" smooth="yes"/>
      <point x="211" y="184" type="line" smooth="yes"/>
      <point x="211" y="234"/>
      <point x="237" y="250"/>
      <point x="286" y="252" type="curve"/>
      <point x="296" y="314" type="line"/>
      <point x="209" y="350" type="line"/>
      <point x="211" y="383"/>
      <point x="241" y="410"/>
      <point x="303" y="410" type="curve" smooth="yes"/>
      <point x="368" y="410"/>
      <point x="405" y="379"/>
      <point x="405" y="317" type="curve" smooth="yes"/>
    </contour>
  </outline>
</glyph>
<glyph name="saraI-thai.narrow" format="2">
  <anchor x="-267" y="506" name="_top"/>
  <anchor x="-267" y="687" name="top"/>
  <outline>
    <contour>
      <point x="-639" y="604" type="line"/>
      <point x="-267" y="604" type="line"/>
      <point x="-267" y="709" type="line"/>
      <point x="-557" y="709" type="line"/>
      <point x="-639" y="667" type="line"/>
    </contour>
  </outline>
</glyph>
<glyph name="saraIi-thai.narrow" format="2">
  <anchor x="-268" y="506" name="_top"/>
  <anchor x="-268" y="742" name="top"/>
  <outline>
    <contour>
      <point x="-639" y="594" type="line"/>
      <point x="-267" y="594" type="line"/>
      <point x="-267" y="693" type="line"/>
      <point x="-557" y="693" type="line"/>
      <point x="-639" y="650" type="line"/>
    </contour>
    <contour>
      <point x="-389" y="655" type="line"/>
      <point x="-267" y="655" type="line"/>
      <point x="-267" y="767" type="line"/>
      <point x="-389" y="767" type="line"/>
    </contour>
  </outline>
</glyph>
<glyph name="saraU-thai.small" format="2">
  <anchor x="-70" y="-71" name="_bottom"/>
  <anchor x="-70" y="-221" name="bottom"/>
  <outline>
    <contour>
      <point x="-198" y="-261" type="line"/>
      <point x="-70" y="-261" type="line"/>
      <point x="-70" y="-209" type="line" smooth="yes"/>
      <point x="-70" y="-164"/>
      <point x="-94" y="-136"/>
      <point x="-159" y="-136" type="curve" smooth="yes"/>
      <point x="-193" y="-136"/>
      <point x="-228" y="-144"/>
      <point x="-247" y="-151" type="curve"/>
      <point x="-240" y="-223" type="line"/>
      <point x="-234" y="-221"/>
      <point x="-227" y="-219"/>
      <point x="-220" y="-219" type="curve" smooth="yes"/>
      <point x="-205" y="-219"/>
      <point x="-198" y="-227"/>
      <point x="-198" y="-244" type="curve" smooth="yes"/>
    </contour>
  </outline>
</glyph>
<glyph name="saraUe-thai.narrow" format="2">
  <anchor x="-268" y="506" name="_top"/>
  <anchor x="-268" y="742" name="top"/>
  <outline>
    <contour>
      <point x="-639" y="594" type="line"/>
      <point x="-346" y="594" type="line" smooth="yes"/>
      <point x="-280" y="594"/>
      <point x="-247" y="634"/>
      <point x="-247" y="687" type="curve" smooth="yes"/>
      <point x="-247" y="742"/>
      <point x="-285" y="782"/>
      <point x="-347" y="782" type="curve" smooth="yes"/>
      <point x="-408" y="782"/>
      <point x="-444" y="745"/>
      <point x="-444" y="695" type="curve" smooth="yes"/>
      <point x="-444" y="685"/>
      <point x="-443" y="673"/>
      <point x="-437" y="660" type="curve"/>
      <point x="-411" y="693" type="line"/>
      <point x="-557" y="693" type="line"/>
      <point x="-639" y="650" type="line"/>
    </contour>
    <contour>
      <point x="-348" y="647" type="curve" smooth="yes"/>
      <point x="-376" y="647"/>
      <point x="-390" y="665"/>
      <point x="-390" y="688" type="curve" smooth="yes"/>
      <point x="-390" y="711"/>
      <point x="-375" y="728"/>
      <point x="-349" y="728" type="curve" smooth="yes"/>
      <point x="-323" y="728"/>
      <point x="-307" y="711"/>
      <point x="-307" y="687" type="curve" smooth="yes"/>
      <point x="-307" y="664"/>
      <point x="-321" y="647"/>
    </contour>
  </outline>
</glyph>
<glyph name="saraUee-thai.narrow" format="2">
  <anchor x="-267" y="506" name="_top"/>
  <anchor x="-308" y="742" name="top"/>
  <outline>
    <contour>
      <point x="-639" y="594" type="line"/>
      <point x="-267" y="594" type="line"/>
      <point x="-267" y="693" type="line"/>
      <point x="-557" y="693" type="line"/>
      <point x="-639" y="650" type="line"/>
    </contour>
    <contour>
      <point x="-480" y="677" type="line"/>
      <point x="-399" y="677" type="line"/>
      <point x="-399" y="767" type="line"/>
      <point x="-480" y="767" type="line"/>
    </contour>
    <contour>
      <point x="-349" y="677" type="line"/>
      <point x="-268" y="677" type="line"/>
      <point x="-268" y="767" type="line"/>
      <point x="-349" y="767" type="line"/>
    </contour>
  </outline>
</glyph>
<glyph name="saraUu-thai.small" format="2">
  <anchor x="-69" y="-71" name="_bottom"/>
  <anchor x="-71" y="-221" name="bottom"/>
  <outline>
    <contour>
      <point x="-225" y="-265" type="curve" smooth="yes"/>
      <point x="-117" y="-265"/>
      <point x="-70" y="-248"/>
      <point x="-70" y="-202" type="curve" smooth="yes"/>
      <point x="-70" y="-139" type="line"/>
      <point x="-192" y="-139" type="line"/>
      <point x="-192" y="-186" type="line" smooth="yes"/>
      <point x="-192" y="-199"/>
      <point x="-201" y="-212"/>
      <point x="-229" y="-212" type="curve" smooth="yes"/>
      <point x="-256" y="-212"/>
      <point x="-264" y="-199"/>
      <point x="-264" y="-186" type="curve" smooth="yes"/>
      <point x="-264" y="-183" type="line" smooth="yes"/>
      <point x="-264" y="-154"/>
      <point x="-289" y="-136"/>
      <point x="-347" y="-136" type="curve" smooth="yes"/>
      <point x="-363" y="-136"/>
      <point x="-389" y="-137"/>
      <point x="-408" y="-142" type="curve"/>
      <point x="-402" y="-187" type="line"/>
      <point x="-388" y="-186"/>
      <point x="-379" y="-191"/>
      <point x="-379" y="-209" type="curve" smooth="yes"/>
      <point x="-379" y="-216" type="line" smooth="yes"/>
      <point x="-379" y="-248"/>
      <point x="-332" y="-265"/>
    </contour>
  </outline>
</glyph>
<glyph name="thanthakhat-thai.narrow" format="2">
  <anchor x="-291" y="506" name="_top"/>
  <anchor x="-298" y="719" name="top"/>
  <outline>
    <contour>
      <point x="-495" y="572" type="curve"/>
      <point x="-378" y="592" type="line"/>
      <point x="-383" y="602"/>
      <point x="-386" y="612"/>
      <point x="-386" y="622" type="curve" smooth="yes"/>
      <point x="-386" y="644"/>
      <point x="-371" y="652"/>
      <point x="-345" y="652" type="curve" smooth="yes"/>
      <point x="-268" y="652" type="line"/>
      <point x="-268" y="753" type="line"/>
      <point x="-388" y="753" type="line" smooth="yes"/>
      <point x="-481" y="753"/>
      <point x="-514" y="708"/>
      <point x="-514" y="652" type="curve" smooth="yes"/>
      <point x="-514" y="622"/>
      <point x="-506" y="591"/>
    </contour>
  </outline>
</glyph>
<glyph name="thanthakhat-thai.small" format="2">
  <anchor x="-79" y="742" name="_top"/>
  <anchor x="-79" y="1007" name="top"/>
  <outline>
    <contour>
      <point x="-231" y="818" type="curve"/>
      <point x="-127" y="841" type="line"/>
      <point x="-133" y="852"/>
      <point x="-136" y="866"/>
      <point x="-136" y="876" type="curve" smooth="yes"/>
      <point x="-136" y="901"/>
      <point x="-120" y="913"/>
      <point x="-87" y="913" type="curve" smooth="yes"/>
      <point x="7" y="913" type="line"/>
      <point x="7" y="1001" type="line"/>
      <point x="-103" y="1001" type="line" smooth="yes"/>
      <point x="-222" y="1001"/>
      <point x="-254" y="952"/>
      <point x="-254" y="900" type="curve" smooth="yes"/>
      <point x="-254" y="873"/>
      <point x="-247" y="842"/>
    </contour>
  </outline>
</glyph>
<glyph name="thoThan-thai.less" format="2">
  <advance width="572"/>
  <anchor x="456" y="0" name="bottom"/>
  <anchor x="517" y="507" name="top"/>
  <outline>
    <contour>
      <point x="117" y="0" type="line"/>
      <point x="244" y="0" type="line" smooth="yes"/>
      <point x="438" y="0"/>
      <point x="515" y="95"/>
      <point x="515" y="256" type="curve" smooth="yes"/>
      <point x="515" y="368"/>
      <point x="478" y="429"/>
      <point x="421" y="450" type="curve"/>
      <point x="398" y="511"/>
      <point x="330" y="531"/>
      <point x="241" y="531" type="curve" smooth="yes"/>
      <point x="152" y="531"/>
      <point x="85" y="512"/>
      <point x="41" y="491" type="curve"/>
      <point x="41" y="366" type="line"/>
      <point x="85" y="391"/>
      <point x="140" y="413"/>
      <point x="211" y="413" type="curve" smooth="yes"/>
      <point x="311" y="413"/>
      <point x="363" y="374"/>
      <point x="363" y="260" type="curve" smooth="yes"/>
      <point x="363" y="163"/>
      <point x="325" y="114"/>
      <point x="259" y="114" type="curve" smooth="yes"/>
      <point x="252" y="114" type="line"/>
      <point x="252" y="306" type="line"/>
      <point x="60" y="306" type="line"/>
      <point x="60" y="216" type="line"/>
      <point x="117" y="216" type="line"/>
    </contour>
    <contour>
      <point x="423" y="411" type="line"/>
      <point x="512" y="437"/>
      <point x="548" y="494"/>
      <point x="548" y="553" type="curve"/>
      <point x="417" y="553" type="line"/>
      <point x="416" y="519"/>
      <point x="388" y="496"/>
      <point x="341" y="480" type="curve"/>
    </contour>
  </outline>
</glyph>
<glyph name="toPatak-thai.short" format="2">
  <advance width="637"/>
  <anchor x="567" y="-71" name="bottom"/>
  <anchor x="541" y="507" name="top"/>
  <outline>
    <contour>
      <point x="61" y="-120" type="line"/>
      <point x="181" y="-120" type="line"/>
      <point x="181" y="-117" type="line" smooth="yes"/>
      <point x="181" y="-101"/>
      <point x="192" y="-88"/>
      <point x="220" y="-88" type="curve" smooth="yes"/>
      <point x="253" y="-88"/>
      <point x="276" y="-107"/>
      <point x="286" y="-120" type="curve"/>
      <point x="327" y="-120" type="line"/>
      <point x="369" y="-85" type="line"/>
      <point x="425" y="-120" type="line"/>
      <point x="567" y="-120" type="line"/>
      <point x="567" y="329" type="line" smooth="yes"/>
      <point x="567" y="463"/>
      <point x="471" y="531"/>
      <point x="317" y="531" type="curve" smooth="yes"/>
      <point x="152" y="531"/>
      <point x="67" y="453"/>
      <point x="67" y="358" type="curve" smooth="yes"/>
      <point x="67" y="335" type="line"/>
      <point x="176" y="298" type="line"/>
      <point x="175" y="294" type="line"/>
      <point x="120" y="281"/>
      <point x="94" y="247"/>
      <point x="94" y="188" type="curve" smooth="yes"/>
      <point x="94" y="128" type="line" smooth="yes"/>
      <point x="94" y="106"/>
      <point x="84" y="95"/>
      <point x="61" y="95" type="curve" smooth="yes"/>
      <point x="54" y="95"/>
      <point x="45" y="96"/>
      <point x="36" y="99" type="curve"/>
      <point x="22" y="18" type="line"/>
      <point x="46" y="6"/>
      <point x="76" y="-3"/>
      <point x="115" y="-3" type="curve" smooth="yes"/>
      <point x="187" y="-3"/>
      <point x="240" y="28"/>
      <point x="240" y="110" type="curve" smooth="yes"/>
      <point x="240" y="182" type="line" smooth="yes"/>
      <point x="240" y="231"/>
      <point x="259" y="252"/>
      <point x="297" y="253" type="curve"/>
      <point x="308" y="316" type="line"/>
      <point x="221" y="351" type="line"/>
      <point x="223" y="384"/>
      <point x="253" y="412"/>
      <point x="315" y="412" type="curve" smooth="yes"/>
      <point x="380" y="412"/>
      <point x="417" y="381"/>
      <point x="417" y="320" type="curve" smooth="yes"/>
      <point x="417" y="-79" type="line"/>
      <point x="438" y="-67" type="line"/>
      <point x="366" y="-22" type="line"/>
      <point x="308" y="-71" type="line"/>
      <point x="288" y="-39"/>
      <point x="246" y="-19"/>
      <point x="187" y="-19" type="curve" smooth="yes"/>
      <point x="118" y="-19"/>
      <point x="61" y="-46"/>
      <point x="61" y="-111" type="curve" smooth="yes"/>
    </contour>
  </outline>
</glyph>
<glyph name="yoYing-thai.less" format="2">
  <advance width="912"/>
  <anchor x="830" y="0" name="bottom"/>
  <anchor x="842" y="506" name="top"/>
  <outline>
    <contour>
      <point x="613" y="-13" type="curve" smooth="yes"/>
      <point x="769" y="-13"/>
      <point x="842" y="53"/>
      <point x="842" y="202" type="curve" smooth="yes"/>
      <point x="842" y="519" type="line"/>
      <point x="692" y="519" type="line"/>
      <point x="692" y="190" type="line" smooth="yes"/>
      <point x="692" y="130"/>
      <point x="660" y="107"/>
      <point x="612" y="107" type="curve" smooth="yes"/>
      <point x="564" y="107"/>
      <point x="532" y="130"/>
      <point x="532" y="190" type="curve" smooth="yes"/>
      <point x="532" y="343" type="line" smooth="yes"/>
      <point x="532" y="469"/>
      <point x="434" y="531"/>
      <point x="295" y="531" type="curve" smooth="yes"/>
      <point x="142" y="531"/>
      <point x="55" y="455"/>
      <point x="55" y="358" type="curve" smooth="yes"/>
      <point x="55" y="335" type="line"/>
      <point x="164" y="298" type="line"/>
      <point x="163" y="294" type="line"/>
      <point x="101" y="276"/>
      <point x="65" y="245"/>
      <point x="65" y="172" type="curve" smooth="yes"/>
      <point x="65" y="115" type="line" smooth="yes"/>
      <point x="65" y="32"/>
      <point x="120" y="-10"/>
      <point x="206" y="-10" type="curve" smooth="yes"/>
      <point x="242" y="-10"/>
      <point x="275" y="-2"/>
      <point x="300" y="10" type="curve"/>
      <point x="286" y="98" type="line"/>
      <point x="276" y="94"/>
      <point x="263" y="92"/>
      <point x="251" y="92" type="curve" smooth="yes"/>
      <point x="223" y="92"/>
      <point x="211" y="103"/>
      <point x="211" y="131" type="curve" smooth="yes"/>
      <point x="211" y="185" type="line" smooth="yes"/>
      <point x="211" y="235"/>
      <point x="237" y="251"/>
      <point x="286" y="253" type="curve"/>
      <point x="296" y="316" type="line"/>
      <point x="209" y="354" type="line"/>
      <point x="212" y="394"/>
      <point x="243" y="414"/>
      <point x="295" y="414" type="curve" smooth="yes"/>
      <point x="348" y="414"/>
      <point x="385" y="392"/>
      <point x="385" y="329" type="curve" smooth="yes"/>
      <point x="385" y="202" type="line" smooth="yes"/>
      <point x="385" y="53"/>
      <point x="457" y="-13"/>
    </contour>
  </outline>
</glyph>
